<?xml version="1.0" encoding="utf-8"?>
<svg version="1.2" viewBox="0 0 96 96" xmlns="http://www.w3.org/2000/svg">
  <!-- Gust Symbols by Curbai - https://curbaicode.github.io/ License - https://curbaicode.github.io/license/ (Symbols: CC BY SA 4.0, Fonts: SIL OFL 1.1, Code: GNU AGPLv3) Copyright Curbai -->
  <path d="M 51 12 L 51 18.4 C 56.2 19.7 60 24.4 60 30 C 60 35.6 56.2 40.3 51 41.6 L 51 84 C 51 85.7 49.7 87 48 87 C 46.3 87 45 85.7 45 84 L 45 41.6 C 39.8 40.3 36 35.6 36 30 C 36 24.4 39.8 19.7 45 18.4 L 45 12 C 45 10.3 46.3 9 48 9 C 49.7 9 51 10.3 51 12 Z M 60 66 C 60 60.4 63.8 55.7 69 54.4 L 69 12 C 69 10.3 70.3 9 72 9 C 73.7 9 75 10.3 75 12 L 75 54.4 C 80.2 55.7 84 60.4 84 66 C 84 71.6 80.2 76.3 75 77.6 L 75 84 C 75 85.7 73.7 87 72 87 C 70.3 87 69 85.7 69 84 L 69 77.6 C 63.8 76.3 60 71.6 60 66 Z M 48 36 C 51.3 36 54 33.3 54 30 C 54 26.7 51.3 24 48 24 C 44.7 24 42 26.7 42 30 C 42 33.3 44.7 36 48 36 Z M 72 72 C 75.3 72 78 69.3 78 66 C 78 62.7 75.3 60 72 60 C 68.7 60 66 62.7 66 66 C 66 69.3 68.7 72 72 72 Z M 12 57 C 12 51.4 15.8 46.7 21 45.4 L 21 12 C 21 10.3 22.3 9 24 9 C 25.7 9 27 10.3 27 12 L 27 45.4 C 32.2 46.7 36 51.4 36 57 C 36 62.6 32.2 67.3 27 68.6 L 27 84 C 27 85.7 25.7 87 24 87 C 22.3 87 21 85.7 21 84 L 21 68.6 C 15.8 67.3 12 62.6 12 57 Z M 24 63 C 27.3 63 30 60.3 30 57 C 30 53.7 27.3 51 24 51 C 20.7 51 18 53.7 18 57 C 18 60.3 20.7 63 24 63 Z"/>
</svg>