<?xml version="1.0" encoding="utf-8"?>
<svg version="1.2" viewBox="0 0 96 96" xmlns="http://www.w3.org/2000/svg">
  <!-- Gust Symbols by Curbai - https://curbaicode.github.io/ License - https://curbaicode.github.io/Gust-Symbols/license/ (Symbols: CC BY SA 4.0, Fonts: SIL OFL 1.1, Code: GNU AGPLv3) Copyright Curbai -->
  <path d="m12 45h6.4c1.3-5.2 6-9 11.6-9 5.6 0 10.3 3.8 11.6 9h42.4c1.7 0 3 1.3 3 3 0 1.7-1.3 3-3 3h-42.4c-1.3 5.2-6 9-11.6 9-5.6 0-10.3-3.8-11.6-9h-6.4c-1.7 0-3-1.3-3-3 0-1.7 1.3-3 3-3zm54-9c-5.6 0-10.3-3.8-11.6-9h-42.4c-1.7 0-3-1.3-3-3 0-1.7 1.3-3 3-3h42.4c1.3-5.2 6-9 11.6-9 5.6 0 10.3 3.8 11.6 9h6.4c1.7 0 3 1.3 3 3 0 1.7-1.3 3-3 3h-6.4c-1.3 5.2-6 9-11.6 9zm-30 12c0-3.3-2.7-6-6-6-3.3 0-6 2.7-6 6 0 3.3 2.7 6 6 6 3.3 0 6-2.7 6-6zm36-24c0-3.3-2.7-6-6-6-3.3 0-6 2.7-6 6 0 3.3 2.7 6 6 6 3.3 0 6-2.7 6-6zm-15 60c-5.6 0-10.3-3.8-11.6-9h-33.4c-1.7 0-3-1.3-3-3 0-1.7 1.3-3 3-3h33.4c1.3-5.2 6-9 11.6-9 5.6 0 10.3 3.8 11.6 9h15.4c1.7 0 3 1.3 3 3 0 1.7-1.3 3-3 3h-15.4c-1.3 5.2-6 9-11.6 9zm6-12c0-3.3-2.7-6-6-6-3.3 0-6 2.7-6 6 0 3.3 2.7 6 6 6 3.3 0 6-2.7 6-6z"/>
</svg>