<?xml version="1.0" encoding="utf-8"?>
<svg version="1.2" viewBox="0 0 96 96" width="56" height="56" xmlns="http://www.w3.org/2000/svg">
  <path d="M 70.242 61.758 L 85.242 76.758 C 87.585 79.101 87.585 82.899 85.242 85.242 C 82.899 87.585 79.101 87.585 76.758 85.242 L 61.758 70.242 C 60.188 68.672 59.67 66.448 60.204 64.446 L 57.998 62.24 C 52.829 66.467 46.217 69 39 69 C 22.4 69 9 55.6 9 39 C 9 22.4 22.4 9 39 9 C 55.6 9 69 22.4 69 39 C 69 46.217 66.467 52.829 62.24 57.998 L 64.447 60.205 C 64.949 60.07 65.471 60 66 60 C 67.591 60 69.117 60.633 70.242 61.758 Z M 63 39 C 63 25.7 52.3 15 39 15 C 25.7 15 15 25.7 15 39 C 15 52.3 25.7 63 39 63 C 52.3 63 63 52.3 63 39 Z"/>
</svg>
