<?xml version="1.0" encoding="utf-8"?>
<svg version="1.2" viewBox="0 0 96 96" width="56" height="56" xmlns="http://www.w3.org/2000/svg">
  <path d="M 51 77 C 51 80.5 50.125 83.756 48.027 86.203 C 45.93 88.65 42.667 90 39 90 C 35.333 90 32.143 88.683 30.045 86.41 C 27.947 84.137 27 81.1 27 78 C 27 76.343 28.343 75 30 75 C 31.657 75 33 76.343 33 78 C 33 79.9 33.553 81.363 34.455 82.34 C 35.357 83.317 36.667 84 39 84 C 41.333 84 42.57 83.35 43.473 82.297 C 44.375 81.244 45 79.5 45 77 L 45 45.773 C 45.868 45.281 46.887 45 48 45 C 49.113 45 50.132 45.281 51 45.773 Z M 86.891 47.758 C 87.032 49.504 85.653 51 83.9 51 L 83.6 51 C 82.223 51 81.024 50.063 80.689 48.729 C 79.719 44.845 76.243 42 72 42 C 67.757 42 64.281 44.845 63.311 48.729 C 62.976 50.063 61.777 51 60.4 51 L 59.6 51 C 58.223 51 57.024 50.063 56.689 48.729 C 55.719 44.845 52.243 42 48 42 C 43.757 42 40.281 44.845 39.311 48.729 C 38.976 50.063 37.777 51 36.4 51 L 35.6 51 C 34.223 51 33.024 50.063 32.689 48.729 C 31.719 44.845 28.243 42 24 42 C 19.757 42 16.281 44.845 15.311 48.729 C 14.976 50.063 13.777 51 12.4 51 L 12.1 51 C 10.347 51 8.968 49.504 9.109 47.758 C 10.654 28.714 25.94 13.564 45 12.114 L 45 6 C 45 4.3 46.3 3 48 3 C 49.7 3 51 4.3 51 6 L 51 12.114 C 70.06 13.564 85.346 28.714 86.891 47.758 Z M 17.963 37.43 C 19.834 36.594 21.828 36 24 36 C 28.934 36 33.269 38.464 36 42.18 C 38.731 38.464 43.066 36 48 36 C 52.934 36 57.269 38.464 60 42.18 C 62.731 38.464 67.066 36 72 36 C 74.172 36 76.166 36.594 78.037 37.43 C 72.87 25.982 61.431 18 48 18 C 34.569 18 23.13 25.982 17.963 37.43 Z"/>
</svg>