<?xml version="1.0" encoding="utf-8"?>
<svg version="1.2" viewBox="0 0 96 96" width="56" height="56" xmlns="http://www.w3.org/2000/svg">
  <path d="M 48 90 C 24.8 90 6 71.2 6 48 C 6 24.8 24.8 6 48 6 C 71.2 6 90 24.8 90 48 C 90 71.2 71.2 90 48 90 Z M 84 48 C 84 28.1 67.9 12 48 12 C 28.1 12 12 28.1 12 48 C 12 67.9 28.1 84 48 84 C 67.9 84 84 67.9 84 48 Z M 42 33 C 42 29.7 44.7 27 48 27 C 51.3 27 54 29.7 54 33 L 54 51.37 L 61.887 48.215 C 62.486 47.976 63.147 47.937 63.77 48.103 C 66.002 48.698 66.752 51.486 65.121 53.121 L 50.121 68.121 C 48.95 69.292 47.05 69.292 45.879 68.121 L 30.879 53.121 C 30.423 52.664 30.127 52.073 30.034 51.434 C 29.701 49.149 31.968 47.36 34.113 48.215 L 42 51.37 Z"/>
</svg>