<?xml version="1.0" encoding="utf-8"?>
<svg version="1.2" viewBox="0 0 96 96" xmlns="http://www.w3.org/2000/svg">
  <!-- Gust Symbols by Curbai - https://curbaicode.github.io/ License - https://curbaicode.github.io/gust-symbols/license/ (Symbols: CC BY SA 4.0, Fonts: SIL OFL 1.1, Code: GNU AGPLv3) Copyright Curbai -->
  <path d="M 20.457 25.279 L 34.167 44.865 L 63.516 15.516 C 65.766 13.265 68.818 12 72 12 C 75.182 12 78.234 13.265 80.484 15.516 C 85.169 20.202 85.169 27.798 80.484 32.484 L 51.135 61.833 L 70.721 75.543 C 71.079 75.794 71.377 76.12 71.596 76.498 C 72.752 78.498 71.31 80.999 69 81 L 18 81 C 16.343 81 15 79.657 15 78 L 15 27 C 15 25.691 15.849 24.533 17.098 24.139 C 18.346 23.745 19.706 24.207 20.457 25.279 Z"/>
</svg>