<?xml version="1.0" encoding="utf-8"?>
<svg version="1.2" viewBox="0 0 96 96" xmlns="http://www.w3.org/2000/svg">
  <!-- Gust Symbols by Curbai - https://curbaicode.github.io/ License - https://curbaicode.github.io/Gust-Symbols/license/ (Symbols: CC BY SA 4.0, Fonts: SIL OFL 1.1, Code: GNU AGPLv3) Copyright Curbai -->
  <path d="M 48 6 C 71.2 6 90 24.8 90 48 C 90 71.2 71.2 90 48 90 C 24.8 90 6 71.2 6 48 C 6 24.8 24.8 6 48 6 Z M 12 48 C 12 67.9 28.1 84 48 84 C 67.9 84 84 67.9 84 48 C 84 28.1 67.9 12 48 12 C 28.1 12 12 28.1 12 48 Z M 33 66 C 31.343 66 30 64.657 30 63 L 30 39 C 30 38.492 30.13 37.992 30.376 37.547 C 31.496 35.527 34.383 35.477 35.572 37.457 L 41.005 46.511 L 54.758 32.758 C 57.101 30.415 60.899 30.415 63.242 32.758 C 65.585 35.101 65.585 38.899 63.242 41.242 L 49.49 54.994 L 58.543 60.428 C 58.979 60.69 59.341 61.058 59.595 61.498 C 60.752 63.497 59.31 65.998 57 66 L 33 66 Z"/>
</svg>