<?xml version="1.0" encoding="utf-8"?>
<svg version="1.2" viewBox="0 0 96 96" xmlns="http://www.w3.org/2000/svg">
  <!-- Gust Symbols by Curbai - https://curbaicode.github.io/ License - https://curbaicode.github.io/Gust-Symbols/license/ (Symbols: CC BY SA 4.0, Fonts: SIL OFL 1.1, Code: GNU AGPLv3) Copyright Curbai -->
  <path d="M 90 48 C 90 71.2 71.2 90 48 90 C 24.8 90 6 71.2 6 48 C 6 24.8 24.8 6 48 6 C 71.2 6 90 24.8 90 48 Z M 48 12 C 28.1 12 12 28.1 12 48 C 12 67.9 28.1 84 48 84 C 67.9 84 84 67.9 84 48 C 84 28.1 67.9 12 48 12 Z M 33 54 C 29.7 54 27 51.3 27 48 C 27 44.7 29.7 42 33 42 L 51.37 42 L 48.215 34.113 C 47.976 33.514 47.937 32.853 48.103 32.23 C 48.698 29.998 51.486 29.248 53.121 30.879 L 68.121 45.879 C 69.292 47.05 69.292 48.95 68.121 50.121 L 53.121 65.121 C 52.664 65.577 52.073 65.873 51.434 65.966 C 49.149 66.299 47.36 64.032 48.215 61.887 L 51.37 54 L 33 54 Z"/>
</svg>