<?xml version="1.0" encoding="utf-8"?>
<svg version="1.2" viewBox="0 0 96 96" width="56" height="56" xmlns="http://www.w3.org/2000/svg">
  <path d="M 9.877 39.881 L 45.877 3.881 C 47.048 2.71 48.948 2.71 50.119 3.881 L 86.119 39.881 C 86.422 40.184 86.656 40.548 86.806 40.948 C 87.617 43.111 85.782 45.34 83.504 44.961 L 59.998 41.043 L 59.998 81.002 C 59.998 87.629 54.625 93.002 47.998 93.002 C 41.371 93.002 35.998 87.629 35.998 81.002 L 35.998 41.043 L 12.492 44.961 C 11.206 45.175 9.929 44.534 9.332 43.375 C 8.735 42.216 8.955 40.803 9.877 39.881 Z M 53.998 33.961 L 75.258 37.504 L 47.998 10.244 L 20.738 37.504 L 41.998 33.961 L 41.998 81.002 C 41.998 84.316 44.684 87.002 47.998 87.002 C 51.312 87.002 53.998 84.316 53.998 81.002 L 53.998 33.961 Z"/>
</svg>