<?xml version="1.0" encoding="utf-8"?>
<svg version="1.2" viewBox="0 0 96 96" xmlns="http://www.w3.org/2000/svg">
  <!-- Gust Symbols by Curbai - https://curbaicode.github.io/ License - https://curbaicode.github.io/Gust-Symbols/license/ (Symbols: CC BY SA 4.0, Fonts: SIL OFL 1.1, Code: GNU AGPLv3) Copyright Curbai -->
  <path d="M 48 90 C 24.8 90 6 71.2 6 48 C 6 24.8 24.8 6 48 6 C 71.2 6 90 24.8 90 48 C 90 71.2 71.2 90 48 90 Z M 39 30 C 36.69 30.002 35.248 32.503 36.405 34.502 C 36.659 34.942 37.021 35.31 37.457 35.572 L 46.51 41.006 L 32.758 54.758 C 30.415 57.101 30.415 60.899 32.758 63.242 C 35.101 65.585 38.899 65.585 41.242 63.242 L 54.995 49.489 L 60.428 58.543 C 61.617 60.523 64.504 60.473 65.624 58.453 C 65.87 58.008 66 57.508 66 57 L 66 33 C 66 31.343 64.657 30 63 30 Z"/>
</svg>