<?xml version="1.0" encoding="utf-8"?>
<svg version="1.2" viewBox="0 0 96 96" xmlns="http://www.w3.org/2000/svg">
  <!-- Gust Symbols by Curbai - https://curbaicode.github.io/ License - https://curbaicode.github.io/Gust-Symbols/license/ (Symbols: CC BY SA 4.0, Fonts: SIL OFL 1.1, Code: GNU AGPLv3) Copyright Curbai -->
  <path d="M 6 48 C 6 24.8 24.8 6 48 6 C 71.2 6 90 24.8 90 48 C 90 71.2 71.2 90 48 90 C 24.8 90 6 71.2 6 48 Z M 48 84 C 67.9 84 84 67.9 84 48 C 84 28.1 67.9 12 48 12 C 28.1 12 12 28.1 12 48 C 12 67.9 28.1 84 48 84 Z M 66 63 C 66 64.657 64.657 66 63 66 L 39 66 C 38.492 66 37.992 65.87 37.547 65.624 C 35.527 64.504 35.477 61.617 37.457 60.428 L 46.511 54.995 L 32.758 41.242 C 30.415 38.899 30.415 35.101 32.758 32.758 C 35.101 30.415 38.899 30.415 41.242 32.758 L 54.994 46.51 L 60.428 37.457 C 60.69 37.021 61.058 36.659 61.498 36.405 C 63.497 35.248 65.998 36.69 66 39 L 66 63 Z"/>
</svg>