<?xml version="1.0" encoding="utf-8"?>
<svg version="1.2" viewBox="0 0 96 96" xmlns="http://www.w3.org/2000/svg">
  <!-- Gust Symbols by Curbai - https://curbaicode.github.io/ License - https://curbaicode.github.io/Gust-Symbols/license/ (Symbols: CC BY SA 4.0, Fonts: SIL OFL 1.1, Code: GNU AGPLv3) Copyright Curbai -->
  <path d="M 56.121 9.879 L 92.121 45.879 C 93.292 47.05 93.292 48.95 92.121 50.121 L 56.121 86.121 C 55.818 86.424 55.454 86.658 55.054 86.808 C 52.891 87.619 50.662 85.784 51.041 83.506 L 54.959 60 L 15 60 C 8.373 60 3 54.627 3 48 C 3 41.373 8.373 36 15 36 L 54.959 36 L 51.041 12.494 C 50.827 11.208 51.468 9.931 52.627 9.334 C 53.786 8.737 55.199 8.957 56.121 9.879 Z M 62.041 54 L 58.498 75.26 L 85.758 48 L 58.498 20.74 L 62.041 42 L 15 42 C 11.686 42 9 44.686 9 48 C 9 51.314 11.686 54 15 54 Z"/>
</svg>