<?xml version="1.0" encoding="utf-8"?>
<svg version="1.2" viewBox="0 0 96 96" xmlns="http://www.w3.org/2000/svg">
  <!-- Gust Symbols by Curbai - https://curbaicode.github.io/ License - https://curbaicode.github.io/Gust-Symbols/license/ (Symbols: CC BY SA 4.0, Fonts: SIL OFL 1.1, Code: GNU AGPLv3) Copyright Curbai -->
  <path d="M 48 6 C 71.2 6 90 24.8 90 48 C 90 71.2 71.2 90 48 90 C 24.8 90 6 71.2 6 48 C 6 24.8 24.8 6 48 6 Z M 54 44.63 L 61.887 47.785 C 64.032 48.64 66.299 46.851 65.966 44.566 C 65.873 43.927 65.577 43.336 65.121 42.879 L 50.121 27.879 C 48.95 26.708 47.05 26.708 45.879 27.879 L 30.879 42.879 C 29.248 44.514 29.998 47.302 32.23 47.897 C 32.853 48.063 33.514 48.024 34.113 47.785 L 42 44.63 L 42 63 C 42 66.3 44.7 69 48 69 C 51.3 69 54 66.3 54 63 Z"/>
</svg>