<?xml version="1.0" encoding="utf-8"?>
<svg version="1.2" viewBox="0 0 96 96" xmlns="http://www.w3.org/2000/svg">
  <!-- Gust Symbols by Curbai - https://curbaicode.github.io/ License - https://curbaicode.github.io/gust-symbols/license/ (Symbols: CC BY SA 4.0, Fonts: SIL OFL 1.1, Code: GNU AGPLv3) Copyright Curbai -->
  <path d="M 39.878 86.125 L 3.878 50.125 C 2.707 48.954 2.707 47.054 3.878 45.883 L 39.878 9.883 C 40.181 9.58 40.545 9.346 40.945 9.196 C 43.108 8.385 45.337 10.22 44.958 12.498 L 41.04 36.004 L 80.999 36.004 C 87.626 36.004 92.999 41.377 92.999 48.004 C 92.999 54.631 87.626 60.004 80.999 60.004 L 41.04 60.004 L 44.958 83.51 C 45.172 84.796 44.531 86.073 43.372 86.67 C 42.213 87.267 40.8 87.047 39.878 86.125 Z M 33.958 42.004 L 37.501 20.744 L 10.241 48.004 L 37.501 75.264 L 33.958 54.004 L 80.999 54.004 C 84.313 54.004 86.999 51.318 86.999 48.004 C 86.999 44.69 84.313 42.004 80.999 42.004 L 33.958 42.004 Z"/>
</svg>