<?xml version="1.0" encoding="utf-8"?>
<svg version="1.2" viewBox="0 0 96 96" xmlns="http://www.w3.org/2000/svg">
  <!-- Gust Symbols by Curbai - https://curbaicode.github.io/ License - https://curbaicode.github.io/Gust-Symbols/license/ (Symbols: CC BY SA 4.0, Fonts: SIL OFL 1.1, Code: GNU AGPLv3) Copyright Curbai -->
  <path d="M 86.123 56.123 L 50.123 92.123 C 48.952 93.294 47.052 93.294 45.881 92.123 L 9.881 56.123 C 9.578 55.82 9.344 55.456 9.194 55.056 C 8.383 52.893 10.218 50.664 12.496 51.043 L 36.002 54.961 L 36.002 15.002 C 36.002 8.375 41.375 3.002 48.002 3.002 C 54.629 3.002 60.002 8.375 60.002 15.002 L 60.002 54.961 L 83.508 51.043 C 84.794 50.829 86.071 51.47 86.668 52.629 C 87.265 53.788 87.045 55.201 86.123 56.123 Z M 42.002 62.043 L 20.742 58.5 L 48.002 85.76 L 75.262 58.5 L 54.002 62.043 L 54.002 15.002 C 54.002 11.688 51.316 9.002 48.002 9.002 C 44.688 9.002 42.002 11.688 42.002 15.002 L 42.002 62.043 Z"/>
</svg>