<?xml version="1.0" encoding="utf-8"?>
<svg version="1.2" viewBox="0 0 96 96" xmlns="http://www.w3.org/2000/svg">
  <!-- Gust Symbols by Curbai - https://curbaicode.github.io/ License - https://curbaicode.github.io/Gust-Symbols/license/ (Symbols: CC BY SA 4.0, Fonts: SIL OFL 1.1, Code: GNU AGPLv3) Copyright Curbai -->
  <path d="M 90 48 C 90 71.2 71.2 90 48 90 C 24.8 90 6 71.2 6 48 C 6 24.8 24.8 6 48 6 C 71.2 6 90 24.8 90 48 Z M 51.37 54 L 48.215 61.887 C 47.36 64.032 49.149 66.299 51.434 65.966 C 52.073 65.873 52.664 65.577 53.121 65.121 L 68.121 50.121 C 69.292 48.95 69.292 47.05 68.121 45.879 L 53.121 30.879 C 51.486 29.248 48.698 29.998 48.103 32.23 C 47.937 32.853 47.976 33.514 48.215 34.113 L 51.37 42 L 33 42 C 29.7 42 27 44.7 27 48 C 27 51.3 29.7 54 33 54 Z"/>
</svg>