<?xml version="1.0" encoding="utf-8"?>
<svg version="1.2" viewBox="0 0 96 96" xmlns="http://www.w3.org/2000/svg">
  <!-- Gust Symbols by Curbai - https://curbaicode.github.io/ License - https://curbaicode.github.io/Gust-Symbols/license/ (Symbols: CC BY SA 4.0, Fonts: SIL OFL 1.1, Code: GNU AGPLv3) Copyright Curbai -->
  <path d="M 80.484 63.516 C 85.169 68.202 85.169 75.798 80.484 80.484 C 75.798 85.169 68.202 85.169 63.516 80.484 L 34.167 51.135 L 20.457 70.721 C 20.206 71.079 19.88 71.377 19.502 71.596 C 17.502 72.752 15.001 71.31 15 69 L 15 18 C 15 16.343 16.343 15 18 15 L 69 15 C 69.437 15 69.869 15.096 70.265 15.28 C 72.359 16.255 72.612 19.131 70.721 20.457 L 51.135 34.167 Z M 67.758 76.242 C 70.101 78.585 73.899 78.585 76.242 76.242 C 78.585 73.899 78.585 70.101 76.242 67.758 L 41.837 33.353 L 59.484 21 L 21 21 L 21 59.484 L 33.353 41.837 Z"/>
</svg>