<?xml version="1.0" encoding="utf-8"?>
<svg version="1.2" viewBox="0 0 96 96" xmlns="http://www.w3.org/2000/svg">
  <!-- Gust Symbols by Curbai - https://curbaicode.github.io/ License - https://curbaicode.github.io/license/ (Symbols: CC BY SA 4.0, Fonts: SIL OFL 1.1, Code: GNU AGPLv3) Copyright Curbai -->
  <path d="M 48 90 C 24.8 90 6 71.2 6 48 C 6 24.8 24.8 6 48 6 C 71.2 6 90 24.8 90 48 C 90 71.2 71.2 90 48 90 Z M 42 51.37 L 34.113 48.215 C 31.968 47.36 29.701 49.149 30.034 51.434 C 30.127 52.073 30.423 52.664 30.879 53.121 L 45.879 68.121 C 47.05 69.292 48.95 69.292 50.121 68.121 L 65.121 53.121 C 66.752 51.486 66.002 48.698 63.77 48.103 C 63.147 47.937 62.486 47.976 61.887 48.215 L 54 51.37 L 54 33 C 54 29.7 51.3 27 48 27 C 44.7 27 42 29.7 42 33 Z"/>
</svg>