<?xml version="1.0" encoding="utf-8"?>
<svg version="1.2" viewBox="0 0 96 96" xmlns="http://www.w3.org/2000/svg">
  <!-- Gust Symbols by Curbai - https://curbaicode.github.io/ License - https://curbaicode.github.io/gust-symbols/license/ (Symbols: CC BY SA 4.0, Fonts: SIL OFL 1.1, Code: GNU AGPLv3) Copyright Curbai -->
  <path d="M 32.484 15.516 L 61.833 44.865 L 75.543 25.279 C 76.294 24.207 77.654 23.745 78.902 24.139 C 80.151 24.533 81 25.691 81 27 L 81 78 C 81 79.657 79.657 81 78 81 L 27 81 C 26.563 81 26.131 80.904 25.735 80.72 C 23.641 79.745 23.388 76.869 25.279 75.543 L 44.865 61.833 L 15.516 32.484 C 10.831 27.798 10.831 20.202 15.516 15.516 C 17.766 13.265 20.818 12 24 12 C 27.182 12 30.234 13.265 32.484 15.516 Z M 28.242 19.758 C 27.117 18.633 25.591 18 24 18 C 22.409 18 20.883 18.633 19.758 19.758 C 17.415 22.101 17.415 25.899 19.758 28.242 L 54.163 62.647 L 36.516 75 L 75 75 L 75 36.516 L 62.647 54.163 Z"/>
</svg>