<?xml version="1.0" encoding="utf-8"?>
<svg version="1.2" viewBox="0 0 96 96" xmlns="http://www.w3.org/2000/svg">
  <!-- Gust Symbols by Curbai - https://curbaicode.github.io/ License - https://curbaicode.github.io/gust-symbols/license/ (Symbols: CC BY SA 4.0, Fonts: SIL OFL 1.1, Code: GNU AGPLv3) Copyright Curbai -->
  <path d="M 6 48 C 6 24.8 24.8 6 48 6 C 71.2 6 90 24.8 90 48 C 90 71.2 71.2 90 48 90 C 24.8 90 6 71.2 6 48 Z M 48 84 C 67.9 84 84 67.9 84 48 C 84 28.1 67.9 12 48 12 C 28.1 12 12 28.1 12 48 C 12 67.9 28.1 84 48 84 Z M 63 42 C 66.3 42 69 44.7 69 48 C 69 51.3 66.3 54 63 54 L 44.63 54 L 47.785 61.887 C 48.024 62.486 48.063 63.147 47.897 63.77 C 47.302 66.002 44.514 66.752 42.879 65.121 L 27.879 50.121 C 26.708 48.95 26.708 47.05 27.879 45.879 L 42.879 30.879 C 43.336 30.423 43.927 30.127 44.566 30.034 C 46.851 29.701 48.64 31.968 47.785 34.113 L 44.63 42 L 63 42 Z"/>
</svg>