<?xml version="1.0" encoding="utf-8"?>
<svg version="1.2" viewBox="0 0 96 96" xmlns="http://www.w3.org/2000/svg">
  <!-- Gust Symbols by Curbai - https://curbaicode.github.io/ License - https://curbaicode.github.io/Gust-Symbols/license/ (Symbols: CC BY SA 4.0, Fonts: SIL OFL 1.1, Code: GNU AGPLv3) Copyright Curbai -->
  <path d="M 78 15 C 79.657 15 81 16.343 81 18 L 81 69 C 81 69.437 80.904 69.869 80.72 70.265 C 79.745 72.359 76.869 72.612 75.543 70.721 L 61.833 51.135 L 32.484 80.484 C 27.798 85.169 20.202 85.169 15.516 80.484 C 10.831 75.798 10.831 68.202 15.516 63.516 L 44.865 34.167 L 25.279 20.457 C 24.921 20.206 24.623 19.88 24.404 19.502 C 23.248 17.502 24.69 15.001 27 15 Z M 62.647 41.837 L 75 59.484 L 75 21 L 36.516 21 L 54.163 33.353 L 19.758 67.758 C 17.415 70.101 17.415 73.899 19.758 76.242 C 22.101 78.585 25.899 78.585 28.242 76.242 Z"/>
</svg>