<?xml version="1.0" encoding="utf-8"?>
<svg version="1.2" viewBox="0 0 96 96" width="56" height="56" xmlns="http://www.w3.org/2000/svg">
  <path d="M 90 48 C 90 71.2 71.2 90 48 90 C 24.8 90 6 71.2 6 48 C 6 24.8 24.8 6 48 6 C 71.2 6 90 24.8 90 48 Z M 27 54 C 27 54.796 27.316 55.559 27.879 56.121 C 29.05 57.292 30.95 57.292 32.121 56.121 L 48 40.242 L 63.879 56.121 C 65.05 57.292 66.95 57.292 68.121 56.121 C 69.292 54.95 69.292 53.05 68.121 51.879 L 50.121 33.879 C 48.95 32.708 47.05 32.708 45.879 33.879 L 27.879 51.879 C 27.316 52.441 27 53.204 27 54 Z"/>
</svg>