<?xml version="1.0" encoding="utf-8"?>
<svg version="1.2" viewBox="0 0 96 96" xmlns="http://www.w3.org/2000/svg">
  <!-- Gust Symbols by Curbai - https://curbaicode.github.io/ License - https://curbaicode.github.io/license/ (Symbols: CC BY SA 4.0, Fonts: SIL OFL 1.1, Code: GNU AGPLv3) Copyright Curbai -->
  <path d="M 90 48 C 90 71.2 71.2 90 48 90 C 24.8 90 6 71.2 6 48 C 6 24.8 24.8 6 48 6 C 71.2 6 90 24.8 90 48 Z M 48 12 C 28.1 12 12 28.1 12 48 C 12 67.9 28.1 84 48 84 C 67.9 84 84 67.9 84 48 C 84 28.1 67.9 12 48 12 Z M 27.879 51.879 L 45.879 33.879 C 47.05 32.708 48.95 32.708 50.121 33.879 L 68.121 51.879 C 69.292 53.05 69.292 54.95 68.121 56.121 C 66.95 57.292 65.05 57.292 63.879 56.121 L 48 40.242 L 32.121 56.121 C 30.95 57.292 29.05 57.292 27.879 56.121 C 27.316 55.559 27 54.796 27 54 C 27 53.204 27.316 52.441 27.879 51.879 Z"/>
</svg>