<?xml version="1.0" encoding="utf-8"?>
<svg version="1.2" viewBox="0 0 96 96" width="56" height="56" xmlns="http://www.w3.org/2000/svg">
  <path d="M 48 6 C 71.2 6 90 24.8 90 48 C 90 71.2 71.2 90 48 90 C 24.8 90 6 71.2 6 48 C 6 24.8 24.8 6 48 6 Z M 12 48 C 12 67.9 28.1 84 48 84 C 67.9 84 84 67.9 84 48 C 84 28.1 67.9 12 48 12 C 28.1 12 12 28.1 12 48 Z M 51.879 68.121 L 33.879 50.121 C 32.708 48.95 32.708 47.05 33.879 45.879 L 51.879 27.879 C 53.05 26.708 54.95 26.708 56.121 27.879 C 57.292 29.05 57.292 30.95 56.121 32.121 L 40.242 48 L 56.121 63.879 C 57.292 65.05 57.292 66.95 56.121 68.121 C 55.559 68.684 54.796 69 54 69 C 53.204 69 52.441 68.684 51.879 68.121 Z"/>
</svg>