<?xml version="1.0" encoding="utf-8"?>
<svg version="1.2" viewBox="0 0 96 96" xmlns="http://www.w3.org/2000/svg">
  <!-- Gust Symbols by Curbai - https://curbaicode.github.io/ License - https://curbaicode.github.io/Gust-Symbols/license/ (Symbols: CC BY SA 4.0, Fonts: SIL OFL 1.1, Code: GNU AGPLv3) Copyright Curbai -->
  <path d="m 45.878906,9.8789063 -27,26.9999997 a 3,3 0 0 0 0,4.242188 3,3 0 0 0 4.242188,0 L 48,16.242187 72.878906,41.121094 a 3,3 0 0 0 4.242188,0 3,3 0 0 0 0,-4.242188 l -27,-26.9999997 a 3.0003,3.0003 0 0 0 -4.242188,0 z M 21,54 a 3,3 0 0 0 -2.121094,0.878906 3,3 0 0 0 0,4.242188 l 27,27 a 3.0003,3.0003 0 0 0 4.242188,0 l 27,-27 a 3,3 0 0 0 0,-4.242188 3,3 0 0 0 -4.242188,0 L 48,79.757812 23.121094,54.878906 A 3,3 0 0 0 21,54 Z"/>
</svg>