<?xml version="1.0" encoding="utf-8"?>
<svg version="1.2" viewBox="0 0 96 96" xmlns="http://www.w3.org/2000/svg">
  <!-- Gust Symbols by Curbai - https://curbaicode.github.io/ License - https://curbaicode.github.io/license/ (Symbols: CC BY SA 4.0, Fonts: SIL OFL 1.1, Code: GNU AGPLv3) Copyright Curbai -->
  <path d="m 36,18 a 3,3 0 0 0 -2.121094,0.878906 l -26.9999998,27 a 3.0003,3.0003 0 0 0 0,4.242188 l 26.9999998,27 a 3,3 0 0 0 4.242188,0 3,3 0 0 0 0,-4.242188 L 13.242188,48 38.121094,23.121094 a 3,3 0 0 0 0,-4.242188 A 3,3 0 0 0 36,18 Z m 24,0 a 3,3 0 0 0 -2.121094,0.878906 3,3 0 0 0 0,4.242188 L 82.757812,48 57.878906,72.878906 a 3,3 0 0 0 0,4.242188 3,3 0 0 0 4.242188,0 l 27,-27 a 3.0003,3.0003 0 0 0 0,-4.242188 l -27,-27 A 3,3 0 0 0 60,18 Z"/>
</svg>