<?xml version="1.0" encoding="utf-8"?>
<svg version="1.2" viewBox="0 0 96 96" width="56" height="56" xmlns="http://www.w3.org/2000/svg">
  <path fill-rule="evenodd" d="M 48 90 C 24.8 90 6 71.2 6 48 C 6 24.8 24.8 6 48 6 C 71.2 6 90 24.8 90 48 C 90 71.2 71.2 90 48 90 Z M 84 48 C 84 28.1 67.9 12 48 12 C 28.1 12 12 28.1 12 48 C 12 67.9 28.1 84 48 84 C 67.9 84 84 67.9 84 48 Z M 44.121 27.879 L 62.121 45.879 C 63.292 47.05 63.292 48.95 62.121 50.121 L 44.121 68.121 C 42.95 69.292 41.05 69.292 39.879 68.121 C 38.708 66.95 38.708 65.05 39.879 63.879 L 55.758 48 L 39.879 32.121 C 38.708 30.95 38.708 29.05 39.879 27.879 C 40.441 27.316 41.204 27 42 27 C 42.796 27 43.559 27.316 44.121 27.879 Z"/>
</svg>