<?xml version="1.0" encoding="utf-8"?>
<svg version="1.2" viewBox="0 0 96 96" width="56" height="56" xmlns="http://www.w3.org/2000/svg">
  <path d="M 9 21 C 9 14.4 14.4 9 21 9 L 75 9 C 81.6 9 87 14.4 87 21 L 87 75 C 87 81.6 81.6 87 75 87 L 21 87 C 14.4 87 9 81.6 9 75 Z M 24 75 C 24 73.3 22.7 72 21 72 C 19.3 72 18 73.3 18 75 C 18 76.7 19.3 78 21 78 C 22.7 78 24 76.7 24 75 Z M 78 75 C 78 73.3 76.7 72 75 72 C 73.3 72 72 73.3 72 75 C 72 76.7 73.3 78 75 78 C 76.7 78 78 76.7 78 75 Z M 78 21 C 78 19.3 76.7 18 75 18 C 73.3 18 72 19.3 72 21 C 72 22.7 73.3 24 75 24 C 76.7 24 78 22.7 78 21 Z M 24 21 C 24 19.3 22.7 18 21 18 C 19.3 18 18 19.3 18 21 C 18 22.7 19.3 24 21 24 C 22.7 24 24 22.7 24 21 Z"/>
</svg>