<?xml version="1.0" encoding="utf-8"?>
<svg version="1.2" viewBox="0 0 96 96" width="56" height="56" xmlns="http://www.w3.org/2000/svg">
  <path d="M 9 21 C 9 14.4 14.4 9 21 9 L 75 9 C 81.6 9 87 14.4 87 21 L 87 75 C 87 81.6 81.6 87 75 87 L 21 87 C 14.4 87 9 81.6 9 75 L 9 21 Z M 15 75 C 15 78.3 17.7 81 21 81 L 75 81 C 78.3 81 81 78.3 81 75 L 81 21 C 81 17.7 78.3 15 75 15 L 21 15 C 17.7 15 15 17.7 15 21 L 15 75 Z M 21 24 C 19.3 24 18 22.7 18 21 C 18 19.3 19.3 18 21 18 C 22.7 18 24 19.3 24 21 C 24 22.7 22.7 24 21 24 Z M 75 24 C 73.3 24 72 22.7 72 21 C 72 19.3 73.3 18 75 18 C 76.7 18 78 19.3 78 21 C 78 22.7 76.7 24 75 24 Z M 75 78 C 73.3 78 72 76.7 72 75 C 72 73.3 73.3 72 75 72 C 76.7 72 78 73.3 78 75 C 78 76.7 76.7 78 75 78 Z M 21 78 C 19.3 78 18 76.7 18 75 C 18 73.3 19.3 72 21 72 C 22.7 72 24 73.3 24 75 C 24 76.7 22.7 78 21 78 Z"/>
</svg>