<?xml version="1.0" encoding="utf-8"?>
<svg version="1.2" viewBox="0 0 96 96" xmlns="http://www.w3.org/2000/svg">
  <!-- Gust Symbols by Curbai - https://curbaicode.github.io/ License - https://curbaicode.github.io/license/ (Symbols: CC BY SA 4.0, Fonts: SIL OFL 1.1, Code: GNU AGPLv3) Copyright Curbai -->
  <path d="M 9 21 C 9 14.4 14.4 9 21 9 L 75 9 C 81.6 9 87 14.4 87 21 L 87 75 C 87 81.6 81.6 87 75 87 L 21 87 C 14.4 87 9 81.6 9 75 Z M 15 75 C 15 78.3 17.7 81 21 81 L 75 81 C 78.3 81 81 78.3 81 75 L 81 21 C 81 17.7 78.3 15 75 15 L 21 15 C 17.7 15 15 17.7 15 21 Z M 21 24 C 19.3 24 18 22.7 18 21 C 18 19.3 19.3 18 21 18 C 22.7 18 24 19.3 24 21 C 24 22.7 22.7 24 21 24 Z M 75 24 C 73.3 24 72 22.7 72 21 C 72 19.3 73.3 18 75 18 C 76.7 18 78 19.3 78 21 C 78 22.7 76.7 24 75 24 Z M 75 78 C 73.3 78 72 76.7 72 75 C 72 73.3 73.3 72 75 72 C 76.7 72 78 73.3 78 75 C 78 76.7 76.7 78 75 78 Z M 21 78 C 19.3 78 18 76.7 18 75 C 18 73.3 19.3 72 21 72 C 22.7 72 24 73.3 24 75 C 24 76.7 22.7 78 21 78 Z M 63 24 C 63.265 24 63.52 24.105 63.707 24.293 L 68.707 29.293 C 68.895 29.48 69 29.735 69 30 L 69 45 C 69 45.265 68.895 45.52 68.707 45.707 L 63.707 50.707 C 63.52 50.895 63.265 51 63 51 L 54 51 L 54 59 C 54 59.552 53.552 60 53 60 L 43 60 C 42.448 60 42 59.552 42 59 L 42 48 C 42 47.735 42.105 47.48 42.293 47.293 L 47.293 42.293 C 47.48 42.105 47.735 42 48 42 L 57 42 L 57 33 L 39 33 L 39 41 C 39 41.552 38.552 42 38 42 L 28 42 C 27.448 42 27 41.552 27 41 L 27 30 C 27 29.735 27.105 29.48 27.293 29.293 L 32.293 24.293 C 32.48 24.105 32.735 24 33 24 Z M 53 63 C 53.552 63 54 63.448 54 64 L 54 71 C 54 71.552 53.552 72 53 72 L 43 72 C 42.448 72 42 71.552 42 71 L 42 64 C 42 63.448 42.448 63 43 63 Z"/>
</svg>