<?xml version="1.0" encoding="utf-8"?>
<svg version="1.2" viewBox="0 0 96 96" xmlns="http://www.w3.org/2000/svg">
  <!-- Gust Symbols by Curbai - https://curbaicode.github.io/ License - https://curbaicode.github.io/Gust-Symbols/license/ (Symbols: CC BY SA 4.0, Fonts: SIL OFL 1.1, Code: GNU AGPLv3) Copyright Curbai -->
  <path d="M 9 21 C 9 14.4 14.4 9 21 9 L 75 9 C 81.6 9 87 14.4 87 21 L 87 75 C 87 81.6 81.6 87 75 87 L 21 87 C 14.4 87 9 81.6 9 75 Z M 43 63 C 42.448 63 42 63.448 42 64 L 42 71 C 42 71.552 42.448 72 43 72 L 53 72 C 53.552 72 54 71.552 54 71 L 54 64 C 54 63.448 53.552 63 53 63 Z M 33 24 C 32.735 24 32.48 24.105 32.293 24.293 L 27.293 29.293 C 27.105 29.48 27 29.735 27 30 L 27 41 C 27 41.552 27.448 42 28 42 L 38 42 C 38.552 42 39 41.552 39 41 L 39 33 L 57 33 L 57 42 L 48 42 C 47.735 42 47.48 42.105 47.293 42.293 L 42.293 47.293 C 42.105 47.48 42 47.735 42 48 L 42 59 C 42 59.552 42.448 60 43 60 L 53 60 C 53.552 60 54 59.552 54 59 L 54 51 L 63 51 C 63.265 51 63.52 50.895 63.707 50.707 L 68.707 45.707 C 68.895 45.52 69 45.265 69 45 L 69 30 C 69 29.735 68.895 29.48 68.707 29.293 L 63.707 24.293 C 63.52 24.105 63.265 24 63 24 Z M 24 75 C 24 73.3 22.7 72 21 72 C 19.3 72 18 73.3 18 75 C 18 76.7 19.3 78 21 78 C 22.7 78 24 76.7 24 75 Z M 78 75 C 78 73.3 76.7 72 75 72 C 73.3 72 72 73.3 72 75 C 72 76.7 73.3 78 75 78 C 76.7 78 78 76.7 78 75 Z M 78 21 C 78 19.3 76.7 18 75 18 C 73.3 18 72 19.3 72 21 C 72 22.7 73.3 24 75 24 C 76.7 24 78 22.7 78 21 Z M 24 21 C 24 19.3 22.7 18 21 18 C 19.3 18 18 19.3 18 21 C 18 22.7 19.3 24 21 24 C 22.7 24 24 22.7 24 21 Z"/>
</svg>