<?xml version="1.0" encoding="utf-8"?>
<svg version="1.2" viewBox="0 0 96 96" xmlns="http://www.w3.org/2000/svg">
  <!-- Gust Symbols by Curbai - https://curbaicode.github.io/ License - https://curbaicode.github.io/license/ (Symbols: CC BY SA 4.0, Fonts: SIL OFL 1.1, Code: GNU AGPLv3) Copyright Curbai -->
  <path d="M 33 21 C 33 12.7 39.7 6 48 6 C 56.3 6 63 12.7 63 21 C 63 28.3 57.9 34.3 51 35.7 L 51 57 L 75 57 C 81.6 57 87 62.4 87 69 L 87 75 C 87 81.6 81.6 87 75 87 L 21 87 C 14.4 87 9 81.6 9 75 L 9 69 C 9 62.4 14.4 57 21 57 L 21 55 C 21 54.4 21.4 54 22 54 L 35 54 C 35.6 54 36 54.4 36 55 L 36 57 L 45 57 L 45 35.7 C 38.1 34.3 33 28.3 33 21 Z M 15 75 C 15 78.3 17.7 81 21 81 L 75 81 C 78.3 81 81 78.3 81 75 L 81 69 C 81 65.7 78.3 63 75 63 L 21 63 C 17.7 63 15 65.7 15 69 Z M 57 21 C 57 16 53 12 48 12 C 43 12 39 16 39 21 C 39 26 43 30 48 30 C 53 30 57 26 57 21 Z"/>
</svg>