<?xml version="1.0" encoding="utf-8"?>
<svg version="1.2" viewBox="0 0 96 96" xmlns="http://www.w3.org/2000/svg">
  <!-- Gust Symbols by Curbai - https://curbaicode.github.io/ License - https://curbaicode.github.io/license/ (Symbols: CC BY SA 4.0, Fonts: SIL OFL 1.1, Code: GNU AGPLv3) Copyright Curbai -->
  <path d="M 50.205 3.965 C 50.205 3.965 53.323 7.338 56.451 11.77 C 59.579 16.201 63 21.5 63 27 C 63 34.857 59.572 40.543 56.572 45.543 C 56.37 45.88 56.169 46.214 55.971 46.546 C 55.899 46.617 55.828 46.688 55.758 46.758 C 52.9 49.616 50.739 53.145 49.375 57 L 46.626 57 C 45.261 53.145 43.1 49.616 40.242 46.758 C 40.172 46.688 40.101 46.617 40.029 46.546 C 39.831 46.214 39.63 45.88 39.428 45.543 C 36.428 40.543 33 34.857 33 27 C 33 21.5 36.421 16.201 39.549 11.77 C 42.677 7.338 45.795 3.965 45.795 3.965 C 46.363 3.35 47.163 3 48 3 C 48.837 3 49.637 3.35 50.205 3.965 Z M 49.342 92.684 C 48.497 93.106 47.503 93.106 46.658 92.684 C 46.658 92.684 39.851 89.41 39.072 82.331 C 40.533 81.561 41.948 80.536 43.242 79.242 C 44.042 78.442 44.724 77.588 45.301 76.692 C 45.111 77.974 45 79.398 45 81 C 45 83.764 46.719 85.343 48 86.291 C 49.281 85.343 51 83.764 51 81 C 51 79.398 50.889 77.974 50.699 76.692 C 51.276 77.588 51.958 78.442 52.758 79.242 C 54.052 80.536 55.467 81.561 56.928 82.331 C 56.149 89.41 49.342 92.684 49.342 92.684 Z M 44.451 15.23 C 41.579 19.299 39 24.5 39 27 C 39 33.143 41.572 37.457 44.572 42.457 C 45.757 44.432 46.919 46.653 48 48.934 C 49.081 46.653 50.243 44.432 51.428 42.457 C 54.428 37.457 57 33.143 57 27 C 57 24.5 54.421 19.299 51.549 15.23 C 49.777 12.721 49.1 12.073 48 10.793 C 46.9 12.073 46.223 12.721 44.451 15.23 Z M 27.453 41.502 C 31.976 43.481 35.856 46.614 38.121 48.879 C 40.36 51.118 42.165 53.931 43.404 57 L 36.731 57 C 35.908 55.512 34.932 54.174 33.879 53.121 C 32.144 51.386 28.524 48.519 25.047 46.998 C 23.308 46.237 21.622 45.822 20.299 45.844 C 18.976 45.865 18.061 46.181 17.121 47.121 C 14.828 49.414 14.417 52.049 14.91 54.021 C 15.403 55.994 16.5 57 18 57 C 19.657 57 21 58.343 21 60 C 21 61.657 19.657 63 18 63 C 13.5 63 10.097 59.506 9.09 55.479 C 8.083 51.451 9.172 46.586 12.879 42.879 C 14.939 40.819 17.649 39.885 20.201 39.844 C 22.753 39.803 25.192 40.513 27.453 41.502 Z M 41.121 77.121 C 37.532 80.71 33.314 81.642 30.1 80.928 C 28.492 80.571 27.139 79.874 26.078 78.965 C 25.017 78.055 24 77 24 75 C 24 73.343 25.343 72 27 72 C 28.406 72 29.586 72.967 29.911 74.273 C 29.872 74.191 29.851 74.26 29.931 74.356 C 29.976 74.564 30 74.779 30 75 C 30 74.683 29.973 74.486 29.945 74.372 C 29.956 74.385 29.969 74.397 29.984 74.41 C 30.236 74.626 30.758 74.929 31.4 75.072 C 32.686 75.358 34.468 75.29 36.879 72.879 C 37.902 71.856 38.591 70.532 38.958 69 L 45.061 69 C 44.609 72.003 43.389 74.853 41.121 77.121 Z M 83.121 42.879 C 86.828 46.586 87.917 51.451 86.91 55.479 C 85.903 59.506 82.5 63 78 63 C 76.343 63 75 61.657 75 60 C 75 58.343 76.343 57 78 57 C 79.5 57 80.597 55.994 81.09 54.021 C 81.583 52.049 81.172 49.414 78.879 47.121 C 77.939 46.181 77.024 45.865 75.701 45.844 C 74.378 45.822 72.692 46.237 70.953 46.998 C 67.476 48.519 63.856 51.386 62.121 53.121 C 61.068 54.174 60.092 55.512 59.269 57 L 52.596 57 C 53.835 53.931 55.64 51.118 57.879 48.879 C 60.144 46.614 64.024 43.481 68.547 41.502 C 70.808 40.513 73.247 39.803 75.799 39.844 C 78.351 39.885 81.061 40.819 83.121 42.879 Z M 59.121 72.879 C 61.532 75.29 63.314 75.358 64.6 75.072 C 65.242 74.929 65.764 74.626 66.016 74.41 C 66.031 74.397 66.044 74.385 66.055 74.372 C 66.027 74.486 66 74.683 66 75 C 66 74.779 66.024 74.564 66.069 74.356 C 66.149 74.26 66.128 74.191 66.089 74.273 C 66.414 72.967 67.594 72 69 72 C 70.657 72 72 73.343 72 75 C 72 77 70.983 78.055 69.922 78.965 C 68.861 79.874 67.508 80.571 65.9 80.928 C 62.686 81.642 58.468 80.71 54.879 77.121 C 52.611 74.853 51.391 72.003 50.939 69 L 57.042 69 C 57.409 70.532 58.098 71.856 59.121 72.879 Z M 29.945 74.372 C 29.94 74.367 29.935 74.362 29.931 74.356 C 29.925 74.328 29.918 74.301 29.911 74.273 C 29.922 74.295 29.933 74.327 29.945 74.372 Z M 66.089 74.273 C 66.082 74.301 66.075 74.328 66.069 74.356 C 66.065 74.362 66.06 74.367 66.055 74.372 C 66.067 74.327 66.078 74.295 66.089 74.273 Z M 33 63 C 33 61.3 34.3 60 36 60 L 60 60 C 61.7 60 63 61.3 63 63 C 63 64.7 61.7 66 60 66 L 36 66 C 34.3 66 33 64.7 33 63 Z"/>
</svg>
