<?xml version="1.0" encoding="utf-8"?>
<svg version="1.2" viewBox="0 0 96 96" xmlns="http://www.w3.org/2000/svg">
  <!-- Gust Symbols by Curbai - https://curbaicode.github.io/ License - https://curbaicode.github.io/gust-symbols/license/ (Symbols: CC BY SA 4.0, Fonts: SIL OFL 1.1, Code: GNU AGPLv3) Copyright Curbai -->
  <path d="M 48 3 C 48.796 3 49.559 3.316 50.121 3.879 L 83.121 36.879 C 83.684 37.441 84 38.204 84 39 L 84 81 C 84 87.6 78.6 93 72 93 L 24 93 C 17.4 93 12 87.6 12 81 L 12 15 C 12 8.4 17.4 3 24 3 Z M 18 15 L 18 81 C 18 84.4 20.6 87 24 87 L 72 87 C 75.4 87 78 84.4 78 81 L 78 42 L 57 42 C 50.4 42 45 36.6 45 30 L 45 9 L 24 9 C 20.6 9 18 11.6 18 15 Z M 51 30 C 51 33.4 53.6 36 57 36 L 73.758 36 L 51 13.242 Z M 24 75 C 24 73.3 25.3 72 27 72 L 54 72 C 55.7 72 57 73.3 57 75 C 57 76.7 55.7 78 54 78 L 27 78 C 25.3 78 24 76.7 24 75 Z M 24 63 C 24 61.3 25.3 60 27 60 L 69 60 C 70.7 60 72 61.3 72 63 C 72 64.7 70.7 66 69 66 L 27 66 C 25.3 66 24 64.7 24 63 Z M 24 51 C 24 49.3 25.3 48 27 48 L 69 48 C 70.7 48 72 49.3 72 51 C 72 52.7 70.7 54 69 54 L 27 54 C 25.3 54 24 52.7 24 51 Z"/>
</svg>