<?xml version="1.0" encoding="utf-8"?>
<svg version="1.2" viewBox="0 0 96 96" xmlns="http://www.w3.org/2000/svg">
  <!-- Gust Symbols by Curbai - https://curbaicode.github.io/ License - https://curbaicode.github.io/gust-symbols/license/ (Symbols: CC BY SA 4.0, Fonts: SIL OFL 1.1, Code: GNU AGPLv3) Copyright Curbai -->
  <path d="M 50 6 C 54.823 6 58.814 9.88 58.994 14.663 L 60.236 20.725 C 62.085 21.534 63.834 22.526 65.475 23.703 L 71.391 21.835 C 75.59 19.543 80.945 21.119 83.387 25.279 L 83.389 25.283 L 85.387 28.68 C 85.4 28.703 85.413 28.726 85.426 28.75 C 87.745 32.954 86.419 38.302 82.393 40.822 L 77.787 44.959 C 77.878 45.967 78 46.968 78 48 C 78 49.032 77.878 50.033 77.787 51.041 L 82.393 55.178 C 86.419 57.698 87.745 63.046 85.426 67.25 C 85.413 67.274 85.4 67.297 85.387 67.32 L 83.389 70.717 L 83.387 70.721 C 80.945 74.881 75.59 76.457 71.391 74.165 L 65.475 72.297 C 63.834 73.474 62.085 74.466 60.236 75.275 L 58.994 81.337 C 58.814 86.12 54.823 90 50 90 L 46 90 C 41.177 90 37.186 86.12 37.006 81.337 L 35.764 75.275 C 33.915 74.466 32.166 73.474 30.525 72.297 L 24.609 74.165 C 20.41 76.457 15.055 74.881 12.613 70.721 L 10.613 67.32 C 10.6 67.297 10.587 67.274 10.574 67.25 C 8.255 63.046 9.581 57.698 13.607 55.178 L 18.213 51.041 C 18.122 50.033 18 49.032 18 48 C 18 46.968 18.122 45.967 18.213 44.959 L 13.607 40.822 C 9.581 38.302 8.255 32.954 10.574 28.75 C 10.587 28.726 10.6 28.703 10.613 28.68 L 12.611 25.283 C 15.052 21.12 20.409 19.542 24.61 21.835 L 30.525 23.703 C 32.166 22.526 33.915 21.534 35.764 20.725 L 37.006 14.663 C 37.186 9.88 41.177 6 46 6 Z M 63 48 C 63 39.7 56.3 33 48 33 C 39.7 33 33 39.7 33 48 C 33 56.3 39.7 63 48 63 C 56.3 63 63 56.3 63 48 Z"/>
</svg>