<?xml version="1.0" encoding="utf-8"?>
<svg version="1.2" viewBox="0 0 96 96" xmlns="http://www.w3.org/2000/svg">
  <!-- Gust Symbols by Curbai - https://curbaicode.github.io/ License - https://curbaicode.github.io/Gust-Symbols/license/ (Symbols: CC BY SA 4.0, Fonts: SIL OFL 1.1, Code: GNU AGPLv3) Copyright Curbai -->
  <path d="M 48 63 C 39.7 63 33 56.3 33 48 C 33 39.7 39.7 33 48 33 C 56.3 33 63 39.7 63 48 C 63 56.3 56.3 63 48 63 Z M 57 48 C 57 43 53 39 48 39 C 43 39 39 43 39 48 C 39 53 43 57 48 57 C 53 57 57 53 57 48 Z M 50 6 C 54.823 6 58.814 9.88 58.994 14.663 L 60.236 20.725 C 62.085 21.534 63.834 22.526 65.475 23.703 L 71.391 21.835 C 75.59 19.543 80.945 21.119 83.387 25.279 L 83.389 25.283 L 85.387 28.68 C 85.4 28.703 85.413 28.726 85.426 28.75 C 87.745 32.954 86.419 38.302 82.393 40.822 L 77.787 44.959 C 77.878 45.967 78 46.968 78 48 C 78 49.032 77.878 50.033 77.787 51.041 L 82.393 55.178 C 86.419 57.698 87.745 63.046 85.426 67.25 C 85.413 67.274 85.4 67.297 85.387 67.32 L 83.389 70.717 L 83.387 70.721 C 80.945 74.881 75.59 76.457 71.391 74.165 L 65.475 72.297 C 63.834 73.474 62.085 74.466 60.236 75.275 L 58.994 81.337 C 58.814 86.12 54.823 90 50 90 L 46 90 C 41.177 90 37.186 86.12 37.006 81.337 L 35.764 75.275 C 33.915 74.466 32.166 73.474 30.525 72.297 L 24.609 74.165 C 20.41 76.457 15.055 74.881 12.613 70.721 L 10.613 67.32 C 10.6 67.297 10.587 67.274 10.574 67.25 C 8.255 63.046 9.581 57.698 13.607 55.178 L 18.213 51.041 C 18.122 50.033 18 49.032 18 48 C 18 46.968 18.122 45.967 18.213 44.959 L 13.607 40.822 C 9.581 38.302 8.255 32.954 10.574 28.75 C 10.587 28.726 10.6 28.703 10.613 28.68 L 12.611 25.283 C 15.052 21.12 20.409 19.542 24.61 21.835 L 30.525 23.703 C 32.166 22.526 33.915 21.534 35.764 20.725 L 37.006 14.663 C 37.186 9.88 41.177 6 46 6 Z M 43 15 C 43 15.203 42.98 15.405 42.939 15.604 L 41.338 23.402 C 41.13 24.417 40.413 25.253 39.441 25.613 C 37.031 26.506 34.828 27.745 32.9 29.322 C 32.116 29.964 31.062 30.167 30.096 29.861 L 22.496 27.461 C 22.268 27.388 22.049 27.289 21.844 27.164 C 20.492 26.343 18.681 26.795 17.789 28.316 C 17.788 28.318 17.786 28.319 17.785 28.32 L 15.826 31.648 C 15.825 31.65 15.827 31.651 15.826 31.652 C 15.006 33.144 15.552 35.031 16.889 35.795 C 17.073 35.901 17.246 36.026 17.404 36.168 L 23.305 41.469 C 24.049 42.138 24.411 43.134 24.27 44.125 C 24.09 45.38 24 46.67 24 48 C 24 49.33 24.09 50.62 24.27 51.875 C 24.411 52.866 24.049 53.862 23.305 54.531 L 17.404 59.832 C 17.246 59.974 17.073 60.099 16.889 60.205 C 15.552 60.969 15.006 62.856 15.826 64.348 C 15.827 64.349 15.826 64.35 15.826 64.352 L 17.785 67.68 C 17.786 67.681 17.788 67.682 17.789 67.684 C 18.681 69.205 20.492 69.657 21.844 68.836 C 22.049 68.711 22.268 68.612 22.496 68.539 L 30.096 66.139 C 31.062 65.833 32.116 66.036 32.9 66.678 C 34.828 68.255 37.031 69.494 39.441 70.387 C 40.413 70.747 41.13 71.583 41.338 72.598 L 42.939 80.396 C 42.98 80.595 43 80.797 43 81 C 43 82.664 44.336 84 46 84 L 50 84 C 51.664 84 53 82.664 53 81 C 53 80.797 53.02 80.595 53.061 80.396 L 54.662 72.598 C 54.87 71.583 55.587 70.747 56.559 70.387 C 58.969 69.494 61.172 68.255 63.1 66.678 C 63.884 66.036 64.938 65.833 65.904 66.139 L 73.504 68.539 C 73.732 68.612 73.951 68.711 74.156 68.836 C 75.508 69.657 77.319 69.205 78.211 67.684 C 78.212 67.682 78.214 67.681 78.215 67.68 L 80.174 64.352 L 80.174 64.348 C 80.994 62.856 80.448 60.969 79.111 60.205 C 78.927 60.099 78.754 59.974 78.596 59.832 L 72.695 54.531 C 71.951 53.862 71.589 52.866 71.73 51.875 C 71.91 50.62 72 49.33 72 48 C 72 46.67 71.91 45.38 71.73 44.125 C 71.589 43.134 71.951 42.138 72.695 41.469 L 78.596 36.168 C 78.754 36.026 78.927 35.901 79.111 35.795 C 80.448 35.031 80.994 33.144 80.174 31.652 L 80.174 31.648 L 78.215 28.32 C 78.214 28.319 78.212 28.318 78.211 28.316 C 77.319 26.795 75.508 26.343 74.156 27.164 C 73.951 27.289 73.732 27.388 73.504 27.461 L 65.904 29.861 C 64.938 30.167 63.884 29.964 63.1 29.322 C 61.172 27.745 58.969 26.506 56.559 25.613 C 55.587 25.253 54.87 24.417 54.662 23.402 L 53.061 15.604 C 53.02 15.405 53 15.203 53 15 C 53 13.336 51.664 12 50 12 L 46 12 C 44.336 12 43 13.336 43 15 Z"/>
</svg>