<?xml version="1.0" encoding="utf-8"?>
<svg version="1.2" viewBox="0 0 96 96" xmlns="http://www.w3.org/2000/svg">
  <!-- Gust Symbols by Curbai - https://curbaicode.github.io/ License - https://curbaicode.github.io/gust-symbols/license/ (Symbols: CC BY SA 4.0, Fonts: SIL OFL 1.1, Code: GNU AGPLv3) Copyright Curbai -->
  <path d="M 48 60 C 46.867 60 45.8 59.867 44.8 59.6 L 35.678 75.372 C 39.435 77.061 43.605 78 48 78 C 63.587 78 76.353 66.185 77.853 51 L 59.6 51 C 58.3 56.2 53.6 60 48 60 Z M 32.8 84.2 C 32 85.6 30.1 86.1 28.7 85.3 L 25.2 83.3 C 23.8 82.4 23.3 80.6 24.1 79.2 L 25.288 75.945 C 23.322 74.346 21.529 72.543 19.939 70.569 L 16.7 71.7 C 15.3 72.6 13.4 72.1 12.6 70.6 L 10.6 67.2 C 9.8 65.7 10.3 63.9 11.7 63.1 L 14.359 60.858 C 13.456 58.492 12.794 56.005 12.406 53.429 L 9 52.8 C 7.3 52.8 6 51.5 6 49.8 L 6 45.8 C 6 44.2 7.3 42.8 9 42.8 L 12.461 42.214 C 12.871 39.674 13.545 37.223 14.456 34.891 L 11.8 32.6 C 10.3 31.8 9.8 30 10.7 28.5 L 12.7 25.1 C 13.5 23.6 15.3 23.2 16.8 24 L 20.14 25.185 C 21.73 23.244 23.52 21.472 25.478 19.902 L 24.2 16.4 C 23.4 15 23.9 13.2 25.3 12.3 L 28.8 10.3 C 30.2 9.5 32 10 32.9 11.4 L 35.334 14.287 C 37.582 13.443 39.938 12.817 42.375 12.436 L 43 9 C 43 7.3 44.3 6 46 6 L 50 6 C 51.7 6 53 7.3 53 9 L 53.625 12.436 C 56.159 12.832 58.605 13.493 60.934 14.388 L 63.2 11.7 C 64 10.3 65.9 9.8 67.3 10.6 L 70.8 12.6 C 72.2 13.4 72.7 15.3 71.8 16.7 L 70.647 20.002 C 72.6 21.584 74.384 23.365 75.968 25.317 L 79.3 24.1 C 80.7 23.3 82.6 23.8 83.4 25.2 L 85.4 28.7 C 86.2 30.1 85.7 32 84.3 32.8 L 81.612 35.066 C 82.5 37.377 83.157 39.804 83.555 42.317 L 87 42.9 C 88.7 42.9 90 44.3 90 45.9 L 90 49.9 C 90 51.6 88.7 52.9 87 52.9 L 83.579 53.532 C 83.189 56.067 82.535 58.515 81.645 60.846 L 84.2 63 C 85.7 63.9 86.2 65.7 85.3 67.1 L 83.3 70.6 C 82.5 72 80.7 72.5 79.2 71.7 L 76.081 70.543 C 74.474 72.544 72.656 74.369 70.663 75.985 L 71.8 79.1 C 72.6 80.6 72.1 82.4 70.7 83.2 L 67.2 85.2 C 65.8 86.1 64 85.6 63.1 84.1 L 60.985 81.592 C 58.635 82.5 56.166 83.168 53.606 83.567 L 53 86.9 C 53 88.5 51.7 89.9 50 89.9 L 46 89.9 C 44.3 89.9 43 88.5 43 86.9 L 42.394 83.567 C 39.83 83.167 37.357 82.497 35.003 81.587 Z M 39.6 56.6 C 37.4 54.4 36 51.4 36 48 C 36 44.6 37.4 41.6 39.6 39.4 L 30.478 23.628 C 22.914 29.068 18 37.947 18 48 C 18 58.053 22.914 66.932 30.477 72.372 Z M 44.8 36.4 C 45.8 36.133 46.867 36 48 36 C 53.6 36 58.3 39.8 59.6 45 L 77.853 45 C 76.353 29.815 63.587 18 48 18 C 43.605 18 39.435 18.939 35.678 20.628 Z M 54 48 C 54 44.7 51.3 42 48 42 C 44.7 42 42 44.7 42 48 C 42 51.3 44.7 54 48 54 C 51.3 54 54 51.3 54 48 Z"/>
</svg>