<?xml version="1.0" encoding="utf-8"?>
<svg version="1.2" viewBox="0 0 96 96" xmlns="http://www.w3.org/2000/svg">
  <!-- Gust Symbols by Curbai - https://curbaicode.github.io/ License - https://curbaicode.github.io/gust-symbols/license/ (Symbols: CC BY SA 4.0, Fonts: SIL OFL 1.1, Code: GNU AGPLv3) Copyright Curbai -->
  <path d="M 47.5 33 C 45 33 43 31 43 28.5 C 43 26 45 24 47.5 24 C 50 24 52 26 52 28.5 C 52 31 50 33 47.5 33 Z M 48 39 C 49.657 39 51 40.343 51 42 L 51 66 L 54 66 C 55.657 66 57 67.343 57 69 C 57 70.657 55.657 72 54 72 L 48 72 C 46.343 72 45 70.657 45 69 L 45 45 L 42 45 C 40.343 45 39 43.657 39 42 C 39 40.343 40.343 39 42 39 Z M 48 90 C 24.8 90 6 71.2 6 48 C 6 24.8 24.8 6 48 6 C 71.2 6 90 24.8 90 48 C 90 71.2 71.2 90 48 90 Z M 84 48 C 84 28.1 67.9 12 48 12 C 28.1 12 12 28.1 12 48 C 12 67.9 28.1 84 48 84 C 67.9 84 84 67.9 84 48 Z"/>
</svg>