<?xml version="1.0" encoding="utf-8"?>
<svg version="1.2" viewBox="0 0 96 96" width="56" height="56" xmlns="http://www.w3.org/2000/svg">
  <path d="M 47.5 33 C 45 33 43 31 43 28.5 C 43 26 45 24 47.5 24 C 50 24 52 26 52 28.5 C 52 31 50 33 47.5 33 Z M 48 39 C 49.657 39 51 40.343 51 42 L 51 66 L 54 66 C 55.657 66 57 67.343 57 69 C 57 70.657 55.657 72 54 72 L 48 72 C 46.343 72 45 70.657 45 69 L 45 45 L 42 45 C 40.343 45 39 43.657 39 42 C 39 40.343 40.343 39 42 39 L 48 39 Z M 48 90 C 24.8 90 6 71.2 6 48 C 6 24.8 24.8 6 48 6 C 71.2 6 90 24.8 90 48 C 90 71.2 71.2 90 48 90 Z" style="fill-rule: evenodd;"/>
</svg>