<?xml version="1.0" encoding="utf-8"?>
<svg version="1.2" viewBox="0 0 96 96" xmlns="http://www.w3.org/2000/svg">
  <!-- Gust Symbols by Curbai - https://curbaicode.github.io/ License - https://curbaicode.github.io/gust-symbols/license/ (Symbols: CC BY SA 4.0, Fonts: SIL OFL 1.1, Code: GNU AGPLv3) Copyright Curbai -->
  <path d="m69 9c9.9 0 18 8.1 18 18 0 9.9-8.1 18-18 18h-42c-10 0-18-8-18-18 0-10 8-18 18-18zm0 30c6.6 0 12-5.4 12-12 0-6.6-5.4-12-12-12h-28.6c2.9 3.2 4.6 7.4 4.6 12 0 4.6-1.7 8.8-4.6 12zm-42 12h42c10 0 18 8.1 18 18 0 9.9-8 18-18 18h-42c-9.9 0-18-8.1-18-18 0-9.9 8.1-18 18-18zm54 18c0-6.6-5.3-12-12-12-6.6 0-12 5.4-12 12 0 6.6 5.4 12 12 12 6.7 0 12-5.4 12-12zm-42-42c0-6.6-5.3-12-12-12-6.6 0-12 5.4-12 12 0 6.6 5.4 12 12 12 6.7 0 12-5.4 12-12z"/>
</svg>