<?xml version="1.0" encoding="utf-8"?>
<svg version="1.2" viewBox="0 0 96 96" xmlns="http://www.w3.org/2000/svg">
  <!-- Gust Symbols by Curbai - https://curbaicode.github.io/ License - https://curbaicode.github.io/gust-symbols/license/ (Symbols: CC BY SA 4.0, Fonts: SIL OFL 1.1, Code: GNU AGPLv3) Copyright Curbai -->
  <path d="M 39 48 C 39 43 43 39 48 39 C 53 39 57 43 57 48 C 57 51.946 54.508 55.27 51 56.495 L 51 87 C 51 88.657 49.657 90 48 90 C 46.343 90 45 88.657 45 87 L 45 56.495 C 41.492 55.27 39 51.946 39 48 Z M 22.527 22.514 C 8.461 36.673 8.461 59.327 22.527 73.486 C 23.695 74.662 23.689 76.561 22.514 77.729 C 21.338 78.896 19.439 78.89 18.271 77.715 C 1.938 61.274 1.938 34.726 18.271 18.285 C 19.439 17.11 21.338 17.104 22.514 18.271 C 23.689 19.439 23.695 21.338 22.527 22.514 Z M 77.729 18.285 C 94.062 34.726 94.062 61.274 77.729 77.715 C 76.561 78.89 74.662 78.896 73.486 77.729 C 72.311 76.561 72.305 74.662 73.473 73.486 C 87.539 59.327 87.539 36.673 73.473 22.514 C 72.305 21.338 72.311 19.439 73.486 18.271 C 74.662 17.104 76.561 17.11 77.729 18.285 Z M 35.334 31.092 C 36.498 32.27 36.487 34.169 35.309 35.334 C 28.154 42.403 28.154 53.597 35.309 60.666 C 36.487 61.831 36.498 63.73 35.334 64.908 C 34.169 66.087 32.27 66.098 31.092 64.934 C 21.647 55.602 21.647 40.398 31.092 31.066 C 31.658 30.507 32.423 30.195 33.219 30.199 C 34.014 30.205 34.775 30.526 35.334 31.092 Z M 64.908 31.066 C 74.353 40.398 74.353 55.602 64.908 64.934 C 63.73 66.098 61.831 66.087 60.666 64.908 C 59.502 63.73 59.513 61.831 60.691 60.666 C 67.846 53.597 67.846 42.403 60.691 35.334 C 59.513 34.169 59.502 32.27 60.666 31.092 C 61.225 30.526 61.986 30.205 62.781 30.199 C 63.577 30.195 64.342 30.507 64.908 31.066 Z"/>
</svg>