<?xml version="1.0" encoding="utf-8"?>
<svg version="1.2" viewBox="0 0 96 96" width="56" height="56" xmlns="http://www.w3.org/2000/svg">
  <path d="M 93.063 32.82 C 94.289 33.982 94.316 35.927 93.121 37.121 L 88.922 41.322 C 87.784 42.46 85.951 42.497 84.768 41.406 C 75.093 32.49 62.227 27 48 27 C 33.773 27 20.907 32.49 11.232 41.406 C 10.049 42.497 8.216 42.46 7.078 41.322 L 2.879 37.121 C 1.684 35.927 1.711 33.982 2.938 32.82 C 14.677 21.709 30.534 15 48 15 C 65.466 15 81.323 21.709 93.063 32.82 Z M 76.006 49.768 C 77.285 50.917 77.338 52.905 76.121 54.121 L 71.922 58.322 C 70.803 59.441 69.007 59.499 67.818 58.453 C 62.542 53.813 55.662 51 48 51 C 40.338 51 33.458 53.813 28.182 58.453 C 26.993 59.499 25.197 59.441 24.078 58.322 L 19.879 54.121 C 18.662 52.905 18.715 50.917 19.994 49.768 C 27.416 43.098 37.24 39 48 39 C 58.76 39 68.584 43.098 76.006 49.768 Z M 58.814 66.611 C 60.262 67.711 60.406 69.835 59.121 71.121 L 50.121 80.121 C 48.95 81.292 47.05 81.292 45.879 80.121 L 36.879 71.121 C 35.594 69.835 35.738 67.711 37.186 66.611 C 40.193 64.326 43.953 63 48 63 C 52.047 63 55.807 64.326 58.814 66.611 Z"/>
</svg>