<?xml version="1.0" encoding="utf-8"?>
<svg version="1.2" viewBox="0 0 96 96" xmlns="http://www.w3.org/2000/svg">
  <!-- Gust Symbols by Curbai - https://curbaicode.github.io/ License - https://curbaicode.github.io/gust-symbols/license/ (Symbols: CC BY SA 4.0, Fonts: SIL OFL 1.1, Code: GNU AGPLv3) Copyright Curbai -->
  <path d="M 91.744 51.559 C 93.093 52.522 93.405 54.396 92.441 55.744 C 91.478 57.093 89.604 57.405 88.256 56.441 L 48 27.688 L 7.744 56.441 C 6.396 57.405 4.522 57.093 3.559 55.744 C 2.595 54.396 2.907 52.522 4.256 51.559 L 45 22.456 L 45 15 L 39 15 C 37.3 15 36 13.7 36 12 C 36 10.3 37.3 9 39 9 L 45 9 L 45 3 C 45 1.3 46.3 0 48 0 C 49.7 0 51 1.3 51 3 L 51 9 L 57 9 C 58.7 9 60 10.3 60 12 C 60 13.7 58.7 15 57 15 L 51 15 L 51 22.456 Z M 84 75 C 84 81.6 78.6 87 72 87 L 60 87 L 60 60 C 60 58.997 59.499 58.06 58.664 57.504 L 49.664 51.504 C 48.656 50.832 47.344 50.832 46.336 51.504 L 37.336 57.504 C 36.501 58.06 36 58.997 36 60 L 36 87 L 24 87 C 17.4 87 12 81.6 12 75 L 12 57.089 L 48 31.373 L 84 57.089 Z"/>
</svg>