<?xml version="1.0" encoding="utf-8"?>
<svg version="1.2" viewBox="0 0 96 96" xmlns="http://www.w3.org/2000/svg">
  <!-- Gust Symbols by Curbai - https://curbaicode.github.io/ License - https://curbaicode.github.io/gust-symbols/license/ (Symbols: CC BY SA 4.0, Fonts: SIL OFL 1.1, Code: GNU AGPLv3) Copyright Curbai -->
  <path d="M 87 75 C 87 81.6 81.6 87 75 87 L 60 87 L 60 54 C 60 52.3 58.7 51 57 51 L 39 51 C 37.3 51 36 52.3 36 54 L 36 87 L 21 87 C 14.4 87 9 81.6 9 75 L 9 44.739 L 48 10.939 L 87 44.739 Z M 49.965 0.732 L 75 22.429 L 75 12 C 75 10.3 76.3 9 78 9 L 84 9 C 85.7 9 87 10.3 87 12 L 87 32.829 L 94.965 39.732 C 96.217 40.817 96.353 42.713 95.268 43.965 C 94.183 45.217 92.287 45.353 91.035 44.268 L 48 6.971 L 4.965 44.268 C 3.713 45.353 1.817 45.217 0.732 43.965 C -0.353 42.713 -0.217 40.817 1.035 39.732 L 46.035 0.732 C 47.163 -0.245 48.837 -0.245 49.965 0.732 Z"/>
</svg>