<?xml version="1.0" encoding="utf-8"?>
<svg version="1.2" viewBox="0 0 96 96" xmlns="http://www.w3.org/2000/svg">
  <!-- Gust Symbols by Curbai - https://curbaicode.github.io/ License - https://curbaicode.github.io/Gust-Symbols/license/ (Symbols: CC BY SA 4.0, Fonts: SIL OFL 1.1, Code: GNU AGPLv3) Copyright Curbai -->
  <path d="M 87 75 C 87 81.6 81.6 87 75 87 L 60 87 L 60 63 C 60 56.4 54.6 51 48 51 C 41.4 51 36 56.4 36 63 L 36 87 L 21 87 C 14.4 87 9 81.6 9 75 L 9 57.822 L 48 39.621 L 87 57.822 Z M 45.139 2.1 C 45.532 0.85 46.69 0 48 0 C 49.31 0 50.468 0.85 50.861 2.1 L 60.295 32.117 L 50.537 27.563 C 48.929 26.812 47.071 26.812 45.463 27.563 L 35.705 32.117 Z M 49.27 30.281 L 94.27 51.281 C 95.771 51.982 96.42 53.768 95.719 55.27 C 95.018 56.771 93.232 57.42 91.73 56.719 L 48 36.311 L 4.27 56.719 C 2.768 57.42 0.982 56.771 0.281 55.27 C -0.42 53.768 0.229 51.982 1.73 51.281 L 46.73 30.281 C 47.535 29.905 48.465 29.905 49.27 30.281 Z"/>
</svg>