<?xml version="1.0" encoding="utf-8"?>
<svg version="1.2" viewBox="0 0 96 96" width="56" height="56" xmlns="http://www.w3.org/2000/svg">
  <path d="m 57.861328,15.126953 a 3,3 0 0 0 -3.734375,2.011719 l -18,60 a 3,3 0 0 0 2.011719,3.734375 3,3 0 0 0 3.734375,-2.011719 l 18,-60 A 3,3 0 0 0 57.861328,15.126953 Z M 27,24 a 3,3 0 0 0 -2.121094,0.878906 l -20.9999997,21 a 3.0003,3.0003 0 0 0 0,4.242188 l 20.9999997,21 a 3,3 0 0 0 4.242188,0 3,3 0 0 0 0,-4.242188 L 10.242188,48 29.121094,29.121094 a 3,3 0 0 0 0,-4.242188 A 3,3 0 0 0 27,24 Z m 42,0 a 3,3 0 0 0 -2.121094,0.878906 3,3 0 0 0 0,4.242188 L 85.757812,48 66.878906,66.878906 a 3,3 0 0 0 0,4.242188 3,3 0 0 0 4.242188,0 l 21,-21 a 3.0003,3.0003 0 0 0 0,-4.242188 l -21,-21 A 3,3 0 0 0 69,24 Z"/>
</svg>