<?xml version="1.0" encoding="utf-8"?>
<svg version="1.2" viewBox="0 0 96 96" xmlns="http://www.w3.org/2000/svg">
  <!-- Gust Symbols by Curbai - https://curbaicode.github.io/ License - https://curbaicode.github.io/gust-symbols/license/ (Symbols: CC BY SA 4.0, Fonts: SIL OFL 1.1, Code: GNU AGPLv3) Copyright Curbai -->
  <path d="m12 45h18.2c1.5-8.5 8.9-15 17.8-15 8.9 0 16.3 6.5 17.8 15h18.2c1.7 0 3 1.3 3 3 0 1.7-1.3 3-3 3h-18.2c-1.5 8.5-8.9 15-17.8 15-8.9 0-16.3-6.5-17.8-15h-18.2c-1.7 0-3-1.3-3-3 0-1.7 1.3-3 3-3zm48 3c0-6.6-5.4-12-12-12-6.6 0-12 5.4-12 12 0 6.6 5.4 12 12 12 6.6 0 12-5.4 12-12z"/>
</svg>