<?xml version="1.0" encoding="utf-8"?>
<svg version="1.2" viewBox="0 0 96 96" xmlns="http://www.w3.org/2000/svg">
  <!-- Gust Symbols by Curbai - https://curbaicode.github.io/ License - https://curbaicode.github.io/Gust-Symbols/license/ (Symbols: CC BY SA 4.0, Fonts: SIL OFL 1.1, Code: GNU AGPLv3) Copyright Curbai -->
  <path d="M 12 21 C 12 14.4 17.4 9 24 9 C 30.6 9 36 14.4 36 21 C 36 26.565 32.161 31.277 27 32.618 L 27 63 C 27 67.964 31.036 72 36 72 L 42.395 72 L 39.504 67.664 C 38.65 66.381 38.907 64.659 40.1 63.682 C 41.292 62.705 43.03 62.79 44.121 63.879 L 53.121 72.879 C 54.292 74.05 54.292 75.95 53.121 77.121 L 44.121 86.121 C 43.512 86.728 42.673 87.044 41.815 86.99 C 39.51 86.846 38.226 84.26 39.504 82.336 L 42.395 78 L 36 78 C 27.764 78 21 71.236 21 63 L 21 32.618 C 15.839 31.277 12 26.565 12 21 Z M 30 21 C 30 17.7 27.3 15 24 15 C 20.7 15 18 17.7 18 21 C 18 24.3 20.7 27 24 27 C 27.3 27 30 24.3 30 21 Z M 72 87 C 65.4 87 60 81.6 60 75 C 60 69.435 63.839 64.723 69 63.382 L 69 33 C 69 28.036 64.964 24 60 24 L 53.605 24 L 56.496 28.336 C 56.972 29.052 57.117 29.937 56.896 30.768 C 56.302 33 53.515 33.752 51.879 32.121 L 42.879 23.121 C 41.708 21.95 41.708 20.05 42.879 18.879 L 51.879 9.879 C 52.588 9.172 53.602 8.865 54.584 9.061 C 56.678 9.478 57.678 11.886 56.496 13.664 L 53.605 18 L 60 18 C 68.236 18 75 24.764 75 33 L 75 63.382 C 80.161 64.723 84 69.435 84 75 C 84 81.6 78.6 87 72 87 Z M 78 75 C 78 71.7 75.3 69 72 69 C 68.7 69 66 71.7 66 75 C 66 78.3 68.7 81 72 81 C 75.3 81 78 78.3 78 75 Z"/>
</svg>