<?xml version="1.0" encoding="utf-8"?>
<svg version="1.2" viewBox="0 0 96 96" xmlns="http://www.w3.org/2000/svg">
  <!-- Gust Symbols by Curbai - https://curbaicode.github.io/ License - https://curbaicode.github.io/Gust-Symbols/license/ (Symbols: CC BY SA 4.0, Fonts: SIL OFL 1.1, Code: GNU AGPLv3) Copyright Curbai -->
  <path d="M 12 21 C 12 14.4 17.4 9 24 9 C 30.6 9 36 14.4 36 21 C 36 26.565 32.161 31.277 27 32.618 L 27 36 C 27 40.964 31.036 45 36 45 L 60 45 C 64.964 45 69 40.964 69 36 L 69 32.618 C 63.839 31.277 60 26.565 60 21 C 60 14.4 65.4 9 72 9 C 78.6 9 84 14.4 84 21 C 84 26.565 80.161 31.277 75 32.618 L 75 36 C 75 44.236 68.236 51 60 51 L 51 51 L 51 63.4 C 56.2 64.7 60 69.4 60 75 C 60 81.6 54.6 87 48 87 C 41.4 87 36 81.6 36 75 C 36 69.4 39.8 64.7 45 63.4 L 45 51 L 36 51 C 27.764 51 21 44.236 21 36 L 21 32.618 C 15.839 31.277 12 26.565 12 21 Z M 30 21 C 30 17.7 27.3 15 24 15 C 20.7 15 18 17.7 18 21 C 18 24.3 20.7 27 24 27 C 27.3 27 30 24.3 30 21 Z M 54 75 C 54 71.7 51.3 69 48 69 C 44.7 69 42 71.7 42 75 C 42 78.3 44.7 81 48 81 C 51.3 81 54 78.3 54 75 Z M 78 21 C 78 17.7 75.3 15 72 15 C 68.7 15 66 17.7 66 21 C 66 24.3 68.7 27 72 27 C 75.3 27 78 24.3 78 21 Z"/>
</svg>