<?xml version="1.0" encoding="utf-8"?>
<svg version="1.2" viewBox="0 0 96 96" xmlns="http://www.w3.org/2000/svg">
  <!-- Gust Symbols by Curbai - https://curbaicode.github.io/ License - https://curbaicode.github.io/license/ (Symbols: CC BY SA 4.0, Fonts: SIL OFL 1.1, Code: GNU AGPLv3) Copyright Curbai -->
  <path d="M 24 87 C 17.4 87 12 81.6 12 75 C 12 69.435 15.839 64.723 21 63.382 L 21 51.897 C 22.704 54.318 24.725 56.504 27 58.391 L 27 63.382 C 32.161 64.723 36 69.435 36 75 C 36 81.6 30.6 87 24 87 Z M 30 75 C 30 71.7 27.3 69 24 69 C 20.7 69 18 71.7 18 75 C 18 78.3 20.7 81 24 81 C 27.3 81 30 78.3 30 75 Z M 72 69 C 65.4 69 60 63.6 60 57 C 60 50.4 65.4 45 72 45 C 78.6 45 84 50.4 84 57 C 84 63.6 78.6 69 72 69 Z M 78 57 C 78 53.7 75.3 51 72 51 C 68.7 51 66 53.7 66 57 C 66 60.3 68.7 63 72 63 C 75.3 63 78 60.3 78 57 Z M 24 27 C 20.7 27 18 24.3 18 21 C 18 17.7 20.7 15 24 15 C 27.3 15 30 17.7 30 21 C 30 24.3 27.3 27 24 27 Z M 49 61.5 C 46.5 61.5 44.5 59.5 44.5 57 C 44.5 54.5 46.5 52.5 49 52.5 C 51.5 52.5 53.5 54.5 53.5 57 C 53.5 59.5 51.5 61.5 49 61.5 Z M 24.5 42.5 C 22 42.5 20 40.5 20 38 C 20 35.5 22 33.5 24.5 33.5 C 27 33.5 29 35.5 29 38 C 29 40.5 27 42.5 24.5 42.5 Z M 33 56.5 C 30.5 56.5 28.5 54.5 28.5 52 C 28.5 49.5 30.5 47.5 33 47.5 C 35.5 47.5 37.5 49.5 37.5 52 C 37.5 54.5 35.5 56.5 33 56.5 Z"/>
</svg>