<?xml version="1.0" encoding="utf-8"?>
<svg version="1.2" viewBox="0 0 96 96" xmlns="http://www.w3.org/2000/svg">
  <!-- Gust Symbols by Curbai - https://curbaicode.github.io/ License - https://curbaicode.github.io/gust-symbols/license/ (Symbols: CC BY SA 4.0, Fonts: SIL OFL 1.1, Code: GNU AGPLv3) Copyright Curbai -->
  <path d="M 12 21 C 12 14.4 17.4 9 24 9 C 30.6 9 36 14.4 36 21 C 36 26.6 32.2 31.3 27 32.6 L 27 63.4 C 32.2 64.7 36 69.4 36 75 C 36 81.6 30.6 87 24 87 C 17.4 87 12 81.6 12 75 C 12 69.4 15.8 64.7 21 63.4 L 21 32.6 C 15.8 31.3 12 26.6 12 21 Z M 30 21 C 30 17.7 27.3 15 24 15 C 20.7 15 18 17.7 18 21 C 18 24.3 20.7 27 24 27 C 27.3 27 30 24.3 30 21 Z M 30 75 C 30 71.7 27.3 69 24 69 C 20.7 69 18 71.7 18 75 C 18 78.3 20.7 81 24 81 C 27.3 81 30 78.3 30 75 Z M 72 87 C 65.4 87 60 81.6 60 75 C 60 69.4 63.8 64.7 69 63.4 L 69 36.707 C 69.123 36.596 69.244 36.482 69.363 36.363 L 72 33.727 L 74.637 36.363 C 74.756 36.482 74.877 36.596 75 36.707 L 75 63.4 C 80.2 64.7 84 69.4 84 75 C 84 81.6 78.6 87 72 87 Z M 78 75 C 78 71.7 75.3 69 72 69 C 68.7 69 66 71.7 66 75 C 66 78.3 68.7 81 72 81 C 75.3 81 78 78.3 78 75 Z M 65.121 9.879 L 72 16.758 L 78.879 9.879 C 80.05 8.708 81.95 8.708 83.121 9.879 C 84.292 11.05 84.292 12.95 83.121 14.121 L 76.242 21 L 83.121 27.879 C 84.292 29.05 84.292 30.95 83.121 32.121 C 81.95 33.292 80.05 33.292 78.879 32.121 L 72 25.242 L 65.121 32.121 C 63.95 33.292 62.05 33.292 60.879 32.121 C 59.708 30.95 59.708 29.05 60.879 27.879 L 67.758 21 L 60.879 14.121 C 59.708 12.95 59.708 11.05 60.879 9.879 C 61.441 9.316 62.204 9 63 9 C 63.796 9 64.559 9.316 65.121 9.879 Z"/>
</svg>