<?xml version="1.0" encoding="utf-8"?>
<svg version="1.2" viewBox="0 0 96 96" xmlns="http://www.w3.org/2000/svg">
  <!-- Gust Symbols by Curbai - https://curbaicode.github.io/ License - https://curbaicode.github.io/license/ (Symbols: CC BY SA 4.0, Fonts: SIL OFL 1.1, Code: GNU AGPLv3) Copyright Curbai -->
  <path d="M 51 51 L 57 51 L 57 57 L 51 57 Z M 57 87 L 51 87 L 51 75 L 57 75 L 57 69 L 51 69 L 51 63 L 57 63 L 57 57 L 63 57 L 63 51 L 69 51 L 69 57 L 75 57 L 75 75 L 87 75 L 87 87 L 81 87 L 81 81 L 69 81 L 69 75 L 63 75 L 63 81 L 57 81 Z M 81 51 L 87 51 L 87 69 L 81 69 Z M 63 81 L 69 81 L 69 87 L 63 87 Z M 69 63 L 63 63 L 63 69 L 69 69 Z M 9 18 C 9 13 13 9 18 9 L 36 9 C 41 9 45 13 45 18 L 45 36 C 45 41 41 45 36 45 L 18 45 C 13 45 9 41 9 36 Z M 15 36 C 15 37.7 16.3 39 18 39 L 36 39 C 37.7 39 39 37.7 39 36 L 39 18 C 39 16.3 37.7 15 36 15 L 18 15 C 16.3 15 15 16.3 15 18 Z M 51 18 C 51 13 55 9 60 9 L 78 9 C 83 9 87 13 87 18 L 87 36 C 87 41 83 45 78 45 L 60 45 C 55 45 51 41 51 36 Z M 57 36 C 57 37.7 58.3 39 60 39 L 78 39 C 79.7 39 81 37.7 81 36 L 81 18 C 81 16.3 79.7 15 78 15 L 60 15 C 58.3 15 57 16.3 57 18 Z M 9 60 C 9 55 13 51 18 51 L 36 51 C 41 51 45 55 45 60 L 45 78 C 45 83 41 87 36 87 L 18 87 C 13 87 9 83 9 78 Z M 15 78 C 15 79.7 16.3 81 18 81 L 36 81 C 37.7 81 39 79.7 39 78 L 39 60 C 39 58.3 37.7 57 36 57 L 18 57 C 16.3 57 15 58.3 15 60 Z M 21 21 L 33 21 L 33 33 L 21 33 Z M 63 21 L 75 21 L 75 33 L 63 33 Z M 21 63 L 33 63 L 33 75 L 21 75 Z"/>
</svg>