<?xml version="1.0" encoding="utf-8"?>
<svg version="1.2" viewBox="0 0 96 96" xmlns="http://www.w3.org/2000/svg">
  <!-- Gust Symbols by Curbai - https://curbaicode.github.io/ License - https://curbaicode.github.io/license/ (Symbols: CC BY SA 4.0, Fonts: SIL OFL 1.1, Code: GNU AGPLv3) Copyright Curbai -->
  <path d="M 48 90 C 24.8 90 6 71.2 6 48 C 6 24.8 24.8 6 48 6 C 71.2 6 90 24.8 90 48 C 90 71.2 71.2 90 48 90 Z M 27 60 C 27 62 27.81 62.908 28.783 64.125 C 29.757 65.342 31.096 66.586 32.836 67.746 C 36.316 70.066 41.417 72 48 72 C 54.583 72 59.684 70.066 63.164 67.746 C 64.904 66.586 66.243 65.342 67.217 64.125 C 68.19 62.908 69 62 69 60 C 69 58.343 67.657 57 66 57 C 64.343 57 63.06 59.717 62.533 60.375 C 62.007 61.033 61.096 61.914 59.836 62.754 C 57.316 64.434 53.417 66 48 66 C 42.583 66 38.684 64.434 36.164 62.754 C 34.904 61.914 33.993 61.033 33.467 60.375 C 32.94 59.717 31.657 57 30 57 C 28.343 57 27 58.343 27 60 Z M 66 40.5 C 66 36.4 64 33 61.5 33 C 59 33 57 36.4 57 40.5 C 57 44.6 59 48 61.5 48 C 64 48 66 44.6 66 40.5 Z M 39 40.5 C 39 36.4 37 33 34.5 33 C 32 33 30 36.4 30 40.5 C 30 44.6 32 48 34.5 48 C 37 48 39 44.6 39 40.5 Z"/>
</svg>