<?xml version="1.0" encoding="utf-8"?>
<svg version="1.2" viewBox="0 0 96 96" width="56" height="56" xmlns="http://www.w3.org/2000/svg">
  <path d="M 42 36 C 43.657 36 45 37.343 45 39 C 45 40.657 43.657 42 42 42 L 30 42 C 28.343 42 27 40.657 27 39 C 27 37.343 28.343 36 30 36 Z M 66 36 C 67.657 36 69 37.343 69 39 C 69 40.657 67.657 42 66 42 L 54 42 C 52.343 42 51 40.657 51 39 C 51 37.343 52.343 36 54 36 Z M 66 57 C 67.657 57 69 58.343 69 60 C 69 61.657 67.657 63 66 63 L 30 63 C 28.343 63 27 61.657 27 60 C 27 58.343 28.343 57 30 57 Z M 48 90 C 24.8 90 6 71.2 6 48 C 6 24.8 24.8 6 48 6 C 71.2 6 90 24.8 90 48 C 90 71.2 71.2 90 48 90 Z M 84 48 C 84 28.1 67.9 12 48 12 C 28.1 12 12 28.1 12 48 C 12 67.9 28.1 84 48 84 C 67.9 84 84 67.9 84 48 Z"/>
</svg>