<?xml version="1.0" encoding="utf-8"?>
<svg version="1.2" viewBox="0 0 96 96" width="56" height="56" xmlns="http://www.w3.org/2000/svg">
  <path d="M 48 6 C 71.2 6 90 24.8 90 48 C 90 71.2 71.2 90 48 90 C 24.8 90 6 71.2 6 48 C 6 24.8 24.8 6 48 6 Z M 69 36 C 69 34 68.19 33.092 67.217 31.875 C 66.243 30.658 64.904 29.414 63.164 28.254 C 59.684 25.934 54.583 24 48 24 C 41.417 24 36.316 25.934 32.836 28.254 C 31.096 29.414 29.757 30.658 28.783 31.875 C 27.81 33.092 27 34 27 36 C 27 37.657 28.343 39 30 39 C 31.657 39 32.94 36.283 33.467 35.625 C 33.993 34.967 34.904 34.086 36.164 33.246 C 38.684 31.566 42.583 30 48 30 C 53.417 30 57.316 31.566 59.836 33.246 C 61.096 34.086 62.007 34.967 62.533 35.625 C 63.06 36.283 64.343 39 66 39 C 67.657 39 69 37.657 69 36 Z M 30 55.5 C 30 59.6 32 63 34.5 63 C 37 63 39 59.6 39 55.5 C 39 51.4 37 48 34.5 48 C 32 48 30 51.4 30 55.5 Z M 57 55.5 C 57 59.6 59 63 61.5 63 C 64 63 66 59.6 66 55.5 C 66 51.4 64 48 61.5 48 C 59 48 57 51.4 57 55.5 Z"/>
</svg>