<?xml version="1.0" encoding="utf-8"?>
<svg version="1.2" viewBox="0 0 96 96" xmlns="http://www.w3.org/2000/svg">
  <!-- Gust Symbols by Curbai - https://curbaicode.github.io/ License - https://curbaicode.github.io/gust-symbols/license/ (Symbols: CC BY SA 4.0, Fonts: SIL OFL 1.1, Code: GNU AGPLv3) Copyright Curbai -->
  <path d="M 70.486 63.378 C 66.933 64.406 59.858 66 48 66 C 36.142 66 29.067 64.406 25.514 63.378 C 23.88 60.737 23.339 58.322 24 57 C 26 57 27 60 48 60 C 69 60 70 57 72 57 C 72.661 58.322 72.12 60.737 70.486 63.378 Z M 48 90 C 24.8 90 6 71.2 6 48 C 6 24.8 24.8 6 48 6 C 71.2 6 90 24.8 90 48 C 90 71.2 71.2 90 48 90 Z M 69.729 27.09 C 68.957 26.897 68.14 27.019 67.457 27.428 L 52.457 36.428 C 50.516 37.594 50.516 40.407 52.457 41.573 L 67.457 50.573 C 68.878 51.425 70.72 50.964 71.573 49.543 C 72.425 48.123 71.964 46.281 70.543 45.428 L 59.83 39.001 L 70.543 32.573 C 71.964 31.72 72.425 29.878 71.573 28.458 C 71.164 27.775 70.5 27.284 69.729 27.09 Z M 24 54 C 22.864 54 21.825 54.642 21.316 55.658 C 20.101 58.089 20.752 60.405 21.771 62.713 C 22.791 65.021 24.473 67.411 26.787 69.654 C 31.415 74.142 38.676 78 48 78 C 57.324 78 64.585 74.142 69.213 69.654 C 71.527 67.411 73.209 65.021 74.229 62.713 C 75.248 60.405 75.899 58.089 74.684 55.658 C 74.175 54.642 73.136 54 72 54 C 70.75 54 69.921 54.414 69.246 54.684 C 68.571 54.953 67.821 55.247 66.426 55.582 C 63.636 56.252 58.357 57 48 57 C 37.643 57 32.364 56.252 29.574 55.582 C 28.179 55.247 27.429 54.953 26.754 54.684 C 26.079 54.414 25.25 54 24 54 Z M 26.272 27.09 C 25.5 27.284 24.837 27.775 24.428 28.458 C 23.576 29.878 24.037 31.72 25.457 32.573 L 36.17 39.001 L 25.457 45.428 C 24.037 46.281 23.576 48.123 24.428 49.543 C 25.28 50.964 27.123 51.425 28.543 50.573 L 43.543 41.573 C 45.485 40.407 45.485 37.594 43.543 36.428 L 28.543 27.428 C 27.861 27.019 27.044 26.897 26.272 27.09 Z"/>
</svg>