<?xml version="1.0" encoding="utf-8"?>
<svg version="1.2" viewBox="0 0 96 96" xmlns="http://www.w3.org/2000/svg">
  <!-- Gust Symbols by Curbai - https://curbaicode.github.io/ License - https://curbaicode.github.io/license/ (Symbols: CC BY SA 4.0, Fonts: SIL OFL 1.1, Code: GNU AGPLv3) Copyright Curbai -->
  <path d="M 66 39 C 64.343 39 63.06 36.283 62.533 35.625 C 62.007 34.967 61.096 34.086 59.836 33.246 C 57.316 31.566 53.417 30 48 30 C 42.583 30 38.684 31.566 36.164 33.246 C 34.904 34.086 33.993 34.967 33.467 35.625 C 32.94 36.283 31.657 39 30 39 C 28.343 39 27 37.657 27 36 C 27 34 27.81 33.092 28.783 31.875 C 29.757 30.658 31.096 29.414 32.836 28.254 C 36.316 25.934 41.417 24 48 24 C 54.583 24 59.684 25.934 63.164 28.254 C 64.904 29.414 66.243 30.658 67.217 31.875 C 68.19 33.092 69 34 69 36 C 69 37.657 67.657 39 66 39 Z M 61.5 48 C 64 48 66 51.4 66 55.5 C 66 59.6 64 63 61.5 63 C 59 63 57 59.6 57 55.5 C 57 51.4 59 48 61.5 48 Z M 34.5 48 C 37 48 39 51.4 39 55.5 C 39 59.6 37 63 34.5 63 C 32 63 30 59.6 30 55.5 C 30 51.4 32 48 34.5 48 Z M 48 6 C 71.2 6 90 24.8 90 48 C 90 71.2 71.2 90 48 90 C 24.8 90 6 71.2 6 48 C 6 24.8 24.8 6 48 6 Z M 12 48 C 12 67.9 28.1 84 48 84 C 67.9 84 84 67.9 84 48 C 84 28.1 67.9 12 48 12 C 28.1 12 12 28.1 12 48 Z"/>
</svg>