<?xml version="1.0" encoding="utf-8"?>
<svg version="1.2" viewBox="0 0 96 96" xmlns="http://www.w3.org/2000/svg">
  <!-- Gust Symbols by Curbai - https://curbaicode.github.io/ License - https://curbaicode.github.io/gust-symbols/license/ (Symbols: CC BY SA 4.0, Fonts: SIL OFL 1.1, Code: GNU AGPLv3) Copyright Curbai -->
  <path d="M 48 90 C 24.8 90 6 71.2 6 48 C 6 24.8 24.8 6 48 6 C 71.2 6 90 24.8 90 48 C 90 71.2 71.2 90 48 90 Z M 57 66 C 57 61 53 57 48 57 C 43 57 39 61 39 66 C 39 71 43 75 48 75 C 53 75 57 71 57 66 Z M 66 39 C 66 35.7 64 33 61.5 33 C 59 33 57 35.7 57 39 C 57 42.3 59 45 61.5 45 C 64 45 66 42.3 66 39 Z M 39 39 C 39 35.7 37 33 34.5 33 C 32 33 30 35.7 30 39 C 30 42.3 32 45 34.5 45 C 37 45 39 42.3 39 39 Z"/>
</svg>