<?xml version="1.0" encoding="utf-8"?>
<svg version="1.2" viewBox="0 0 96 96" xmlns="http://www.w3.org/2000/svg">
  <!-- Gust Symbols by Curbai - https://curbaicode.github.io/ License - https://curbaicode.github.io/license/ (Symbols: CC BY SA 4.0, Fonts: SIL OFL 1.1, Code: GNU AGPLv3) Copyright Curbai -->
  <path d="M 48 90 C 24.8 90 6 71.2 6 48 C 6 24.8 24.8 6 48 6 C 71.2 6 90 24.8 90 48 C 90 71.2 71.2 90 48 90 Z M 39 40.5 C 39 36.4 37 33 34.5 33 C 32 33 30 36.4 30 40.5 C 30 44.6 32 48 34.5 48 C 37 48 39 44.6 39 40.5 Z M 66 40.5 C 66 36.4 64 33 61.5 33 C 59 33 57 36.4 57 40.5 C 57 44.6 59 48 61.5 48 C 64 48 66 44.6 66 40.5 Z M 65.051 54.154 L 29.051 66.154 C 27.479 66.679 26.63 68.378 27.154 69.949 C 27.679 71.521 29.378 72.37 30.949 71.846 L 66.949 59.846 C 68.521 59.321 69.37 57.622 68.846 56.051 C 68.321 54.479 66.622 53.63 65.051 54.154 Z"/>
</svg>