<?xml version="1.0" encoding="utf-8"?>
<svg version="1.2" viewBox="0 0 96 96" xmlns="http://www.w3.org/2000/svg">
  <!-- Gust Symbols by Curbai - https://curbaicode.github.io/ License - https://curbaicode.github.io/gust-symbols/license/ (Symbols: CC BY SA 4.0, Fonts: SIL OFL 1.1, Code: GNU AGPLv3) Copyright Curbai -->
  <path d="M 58.656 19.277 C 60.105 20.082 60.627 21.909 59.822 23.357 L 53.75 34.287 L 66.252 34.5 C 67.908 34.529 69.228 35.895 69.199 37.551 C 69.171 39.208 67.805 40.528 66.148 40.5 L 48.648 40.199 C 46.384 40.16 44.978 37.722 46.078 35.742 L 54.578 20.443 C 54.964 19.748 55.61 19.235 56.375 19.016 C 57.14 18.797 57.961 18.891 58.656 19.277 Z M 38.352 40.201 C 40.614 40.241 42.02 42.677 40.922 44.656 L 32.422 59.957 C 31.617 61.405 29.792 61.927 28.344 61.123 C 26.895 60.319 26.373 58.492 27.178 57.043 L 33.25 46.113 L 20.748 45.9 C 19.091 45.872 17.771 44.505 17.801 42.848 C 17.83 41.191 19.195 39.872 20.852 39.9 Z M 78.068 47.656 C 78.333 50.164 78.069 53.074 77.186 56.172 C 75.419 62.369 71.064 69.336 63.002 73.998 C 54.939 78.66 46.724 78.955 40.469 77.385 C 37.341 76.599 34.688 75.37 32.646 73.879 C 31.888 73.325 31.174 72.744 30.567 72.094 C 30.559 71.917 30.549 71.742 30.539 71.568 C 30.395 69.165 29.992 66.99 29.678 65.585 C 29.831 65.446 29.998 65.322 30.18 65.215 C 31.266 64.576 32.195 64.52 32.914 64.416 C 33.633 64.312 34.434 64.193 35.813 63.785 C 38.57 62.97 43.524 60.979 52.5 55.801 C 61.477 50.622 65.689 47.335 67.775 45.359 C 68.819 44.372 69.321 43.74 69.766 43.174 C 70.21 42.608 70.704 41.847 71.779 41.215 C 71.976 41.099 72.182 41.008 72.394 40.941 C 73.452 41.916 75.133 43.354 77.143 44.682 C 77.283 44.775 77.426 44.867 77.57 44.96 C 77.826 45.811 77.969 46.72 78.068 47.656 Z M 73.3 43.8 C 71.6 44.8 72.2 47.9 54 58.4 C 35.8 68.9 33.4 66.8 31.7 67.8 C 31.799 69.286 33.479 71.109 36.213 72.58 C 39.818 71.688 46.741 69.519 57 63.6 C 67.238 57.693 72.571 52.799 75.154 50.129 C 75.259 47.008 74.527 44.629 73.3 43.8 Z M 69 84.4 C 55.421 92.237 39.285 91.63 26.669 84.213 C 28.262 82.688 29.247 80.789 29.799 79.048 C 40.613 85.367 54.398 85.878 66 79.2 C 77.588 72.463 84.047 60.28 84.001 47.787 C 85.781 48.178 87.915 48.277 90.03 47.663 C 90.132 62.294 82.578 76.564 69 84.4 Z M 27 11.6 C 46.723 0.217 71.839 6.648 83.733 25.884 C 82.577 26.132 81.492 26.466 80.455 26.816 C 79.534 27.127 78.648 27.467 77.821 27.81 C 67.286 12.314 46.448 7.333 30 16.8 C 13.553 26.362 7.439 46.896 15.59 63.713 C 14.881 64.256 14.144 64.852 13.416 65.492 C 12.594 66.214 11.761 66.987 10.968 67.865 C 0.263 47.942 7.277 22.983 27 11.6 Z M 94.098 31.801 C 95.19 33.695 95.653 35.973 95.172 38.246 C 94.69 40.519 93.165 42.707 90.82 44.086 C 90.813 44.09 90.806 44.094 90.799 44.098 C 88.633 45.347 86.192 45.284 84.172 44.742 C 82.151 44.2 80.364 43.213 78.797 42.178 C 75.663 40.107 73.342 37.686 73.342 37.686 C 71.986 36.282 72.309 33.977 74 33.002 C 74 33.002 77.425 31.006 81.414 29.658 C 83.409 28.984 85.556 28.429 87.785 28.467 C 90.014 28.505 92.723 29.418 94.098 31.801 Z M 26.385 64.775 C 26.385 64.775 27.321 67.997 27.545 71.746 C 27.657 73.621 27.614 75.663 27.072 77.684 C 26.531 79.701 25.367 81.839 23.207 83.09 C 20.843 84.475 18.157 84.703 15.945 83.973 C 13.73 83.24 11.995 81.693 10.902 79.799 C 9.528 77.416 10.091 74.613 11.174 72.664 C 12.256 70.715 13.813 69.135 15.395 67.746 C 18.559 64.967 22 63.002 22 63.002 C 22.8 62.54 23.769 62.473 24.625 62.82 C 25.481 63.166 26.13 63.888 26.385 64.775 Z"/>
</svg>