<?xml version="1.0" encoding="utf-8"?>
<svg version="1.2" viewBox="0 0 96 96" xmlns="http://www.w3.org/2000/svg">
  <!-- Gust Symbols by Curbai - https://curbaicode.github.io/ License - https://curbaicode.github.io/license/ (Symbols: CC BY SA 4.0, Fonts: SIL OFL 1.1, Code: GNU AGPLv3) Copyright Curbai -->
  <path d="M 29.574 55.582 C 32.364 56.252 37.643 57 48 57 C 58.357 57 63.636 56.252 66.426 55.582 C 67.527 55.318 68.226 55.079 68.804 54.858 C 68.78 55.816 68.768 56.892 68.779 58.042 C 66.057 58.909 60.666 60 48 60 C 35.334 60 29.943 58.909 27.221 58.042 C 27.232 56.892 27.22 55.816 27.196 54.858 C 27.774 55.079 28.473 55.318 29.574 55.582 Z M 69.213 69.654 C 64.585 74.142 57.324 78 48 78 C 38.676 78 31.415 74.142 26.787 69.654 C 26.592 69.465 26.402 69.276 26.217 69.085 C 26.591 67.31 26.803 65.527 26.956 63.771 C 30.844 64.767 37.572 66 48 66 C 58.428 66 65.156 64.767 69.044 63.771 C 69.197 65.527 69.409 67.31 69.783 69.085 C 69.598 69.276 69.408 69.465 69.213 69.654 Z M 48 90 C 37.328 90 27.586 86.022 20.178 79.467 C 20.712 79.138 21.2 78.77 21.625 78.377 C 22.767 77.323 23.565 76.172 24.178 75.004 C 30.523 80.604 38.861 84 48 84 C 57.139 84 65.477 80.604 71.822 75.004 C 72.435 76.172 73.233 77.323 74.375 78.377 C 74.8 78.77 75.288 79.138 75.822 79.467 C 68.414 86.022 58.672 90 48 90 Z M 6 48 C 6 24.8 24.8 6 48 6 C 71.2 6 90 24.8 90 48 C 90 51.22 89.638 54.355 88.952 57.367 C 87.857 55.806 86.667 54.394 85.555 53.096 C 84.984 52.43 84.413 51.797 83.86 51.205 C 83.953 50.149 84 49.08 84 48 C 84 28.1 67.9 12 48 12 C 28.1 12 12 28.1 12 48 C 12 49.08 12.047 50.149 12.14 51.205 C 11.587 51.797 11.016 52.43 10.445 53.096 C 9.333 54.394 8.143 55.806 7.048 57.367 C 6.362 54.355 6 51.22 6 48 Z M 42.805 37.08 C 44.558 39.185 44.959 41.506 44.959 41.506 C 45.232 43.14 44.128 44.686 42.494 44.959 C 40.86 45.232 39.314 44.128 39.041 42.494 C 39.041 42.494 38.942 41.815 38.195 40.92 C 37.449 40.024 36.25 39 33 39 C 29.75 39 28.551 40.024 27.805 40.92 C 27.058 41.815 26.959 42.494 26.959 42.494 C 26.686 44.128 25.14 45.232 23.506 44.959 C 21.872 44.686 20.768 43.14 21.041 41.506 C 21.041 41.506 21.442 39.185 23.195 37.08 C 24.949 34.976 28.25 33 33 33 C 37.75 33 41.051 34.976 42.805 37.08 Z M 72.805 37.08 C 74.558 39.185 74.959 41.506 74.959 41.506 C 75.232 43.14 74.128 44.686 72.494 44.959 C 70.86 45.232 69.314 44.128 69.041 42.494 C 69.041 42.494 68.942 41.815 68.195 40.92 C 67.449 40.024 66.25 39 63 39 C 59.75 39 58.551 40.024 57.805 40.92 C 57.058 41.815 56.959 42.494 56.959 42.494 C 56.686 44.128 55.14 45.232 53.506 44.959 C 51.872 44.686 50.768 43.14 51.041 41.506 C 51.041 41.506 51.442 39.185 53.195 37.08 C 54.949 34.976 58.25 33 63 33 C 67.75 33 71.051 34.976 72.805 37.08 Z M 23.99 50.75 C 23.99 50.75 24.518 56.92 23.99 63.25 C 23.726 66.415 23.238 69.63 22.082 72.404 C 21.504 73.791 20.752 75.102 19.59 76.174 C 18.428 77.246 16.75 78 15 78 C 12.5 78 10.086 77.328 8.379 75.621 C 6.672 73.914 6 71.5 6 69 C 6 63.5 9.539 58.761 12.723 55.047 C 15.906 51.333 19.08 48.695 19.08 48.695 C 19.94 47.979 21.126 47.801 22.158 48.232 C 23.191 48.664 23.897 49.635 23.99 50.75 Z M 76.92 48.695 C 76.92 48.695 80.094 51.333 83.277 55.047 C 86.461 58.761 90 63.5 90 69 C 90 71.5 89.328 73.914 87.621 75.621 C 85.914 77.328 83.5 78 81 78 C 79.25 78 77.572 77.246 76.41 76.174 C 75.248 75.102 74.496 73.791 73.918 72.404 C 72.762 69.63 72.274 66.415 72.01 63.25 C 71.482 56.92 72.01 50.75 72.01 50.75 C 72.103 49.635 72.809 48.664 73.842 48.232 C 74.874 47.801 76.06 47.979 76.92 48.695 Z"/>
</svg>