<?xml version="1.0" encoding="utf-8"?>
<svg version="1.2" viewBox="0 0 96 96" width="56" height="56" xmlns="http://www.w3.org/2000/svg">
  <path d="M 28.543 27.428 L 43.543 36.428 C 45.485 37.594 45.485 40.407 43.543 41.573 L 28.543 50.573 C 27.123 51.425 25.28 50.964 24.428 49.543 C 23.576 48.123 24.037 46.281 25.457 45.428 L 36.17 39.001 L 25.457 32.573 C 24.037 31.72 23.576 29.878 24.428 28.458 C 24.837 27.775 25.5 27.284 26.272 27.09 C 27.044 26.897 27.861 27.019 28.543 27.428 Z M 71.573 28.458 C 72.425 29.878 71.964 31.72 70.543 32.573 L 59.83 39.001 L 70.543 45.428 C 71.964 46.281 72.425 48.123 71.573 49.543 C 70.72 50.964 68.878 51.425 67.457 50.573 L 52.457 41.573 C 50.516 40.407 50.516 37.594 52.457 36.428 L 67.457 27.428 C 68.14 27.019 68.957 26.897 69.729 27.09 C 70.5 27.284 71.164 27.775 71.573 28.458 Z M 48 90 C 24.8 90 6 71.2 6 48 C 6 24.8 24.8 6 48 6 C 71.2 6 90 24.8 90 48 C 90 71.2 71.2 90 48 90 Z M 84 48 C 84 28.1 67.9 12 48 12 C 28.1 12 12 28.1 12 48 C 12 67.9 28.1 84 48 84 C 67.9 84 84 67.9 84 48 Z M 26.754 54.684 C 27.429 54.953 28.179 55.247 29.574 55.582 C 32.364 56.252 37.643 57 48 57 C 58.357 57 63.636 56.252 66.426 55.582 C 67.821 55.247 68.571 54.953 69.246 54.684 C 69.921 54.414 70.75 54 72 54 C 73.136 54 74.175 54.642 74.684 55.658 C 75.899 58.089 75.248 60.405 74.229 62.713 C 73.209 65.021 71.527 67.411 69.213 69.654 C 64.585 74.142 57.324 78 48 78 C 38.676 78 31.415 74.142 26.787 69.654 C 24.473 67.411 22.791 65.021 21.771 62.713 C 20.752 60.405 20.101 58.089 21.316 55.658 C 21.825 54.642 22.864 54 24 54 C 25.25 54 26.079 54.414 26.754 54.684 Z M 72 57 C 70 57 69 60 48 60 C 27 60 26 57 24 57 C 23.339 58.322 23.88 60.737 25.514 63.378 C 29.067 64.406 36.142 66 48 66 C 59.858 66 66.933 64.406 70.486 63.378 C 72.12 60.737 72.661 58.322 72 57 Z"/>
</svg>