<?xml version="1.0" encoding="utf-8"?>
<svg version="1.2" viewBox="0 0 96 96" width="56" height="56" xmlns="http://www.w3.org/2000/svg">
  <path d="M 48 90 C 24.8 90 6 71.2 6 48 C 6 24.8 24.8 6 48 6 C 71.2 6 90 24.8 90 48 C 90 71.2 71.2 90 48 90 Z M 42 72 C 40.343 72 39 73.343 39 75 C 39 76.657 40.343 78 42 78 L 54 78 C 55.657 78 57 76.657 57 75 C 57 73.343 55.657 72 54 72 Z M 39 47.5 C 39 43.3 36.5 39.7 33 38 C 33 38.133 33 38.3 33 38.5 C 33 41 31 43 28.5 43 C 26 43 24 41 24 38.5 C 24 38.3 24 38.133 24 38 C 20.5 39.7 18 43.3 18 47.5 C 18 53.3 22.7 58 28.5 58 C 34.3 58 39 53.3 39 47.5 Z M 78 47.5 C 78 43.3 75.5 39.7 72 38 C 72 38.133 72 38.3 72 38.5 C 72 41 70 43 67.5 43 C 65 43 63 41 63 38.5 C 63 38.3 63 38.133 63 38 C 59.5 39.7 57 43.3 57 47.5 C 57 53.3 61.7 58 67.5 58 C 73.3 58 78 53.3 78 47.5 Z"/>
</svg>