<?xml version="1.0" encoding="utf-8"?>
<svg version="1.2" viewBox="0 0 96 96" xmlns="http://www.w3.org/2000/svg">
  <!-- Gust Symbols by Curbai - https://curbaicode.github.io/ License - https://curbaicode.github.io/gust-symbols/license/ (Symbols: CC BY SA 4.0, Fonts: SIL OFL 1.1, Code: GNU AGPLv3) Copyright Curbai -->
  <path d="M 48 90 C 24.8 90 6 71.2 6 48 C 6 24.8 24.8 6 48 6 C 71.2 6 90 24.8 90 48 C 90 71.2 71.2 90 48 90 Z M 84 48 C 84 28.1 67.9 12 48 12 C 28.1 12 12 28.1 12 48 C 12 67.9 28.1 84 48 84 C 67.9 84 84 67.9 84 48 Z M 67.5 61 C 60 61 54 55 54 47.5 C 54 40 60 34 67.5 34 C 75 34 81 40 81 47.5 C 81 55 75 61 67.5 61 Z M 78 47.5 C 78 43.3 75.5 39.7 72 38 C 72 38.133 72 38.3 72 38.5 C 72 41 70 43 67.5 43 C 65 43 63 41 63 38.5 C 63 38.3 63 38.133 63 38 C 59.5 39.7 57 43.3 57 47.5 C 57 53.3 61.7 58 67.5 58 C 73.3 58 78 53.3 78 47.5 Z M 28.5 61 C 21 61 15 55 15 47.5 C 15 40 21 34 28.5 34 C 36 34 42 40 42 47.5 C 42 55 36 61 28.5 61 Z M 39 47.5 C 39 43.3 36.5 39.7 33 38 C 33 38.133 33 38.3 33 38.5 C 33 41 31 43 28.5 43 C 26 43 24 41 24 38.5 C 24 38.3 24 38.133 24 38 C 20.5 39.7 18 43.3 18 47.5 C 18 53.3 22.7 58 28.5 58 C 34.3 58 39 53.3 39 47.5 Z M 54 72 C 55.657 72 57 73.343 57 75 C 57 76.657 55.657 78 54 78 L 42 78 C 40.343 78 39 76.657 39 75 C 39 73.343 40.343 72 42 72 Z"/>
</svg>