<?xml version="1.0" encoding="utf-8"?>
<svg version="1.2" viewBox="0 0 96 96" xmlns="http://www.w3.org/2000/svg">
  <!-- Gust Symbols by Curbai - https://curbaicode.github.io/ License - https://curbaicode.github.io/gust-symbols/license/ (Symbols: CC BY SA 4.0, Fonts: SIL OFL 1.1, Code: GNU AGPLv3) Copyright Curbai -->
  <path d="M 34.5 48 C 32 48 30 44.6 30 40.5 C 30 36.4 32 33 34.5 33 C 37 33 39 36.4 39 40.5 C 39 44.6 37 48 34.5 48 Z M 61.5 48 C 59 48 57 44.6 57 40.5 C 57 36.4 59 33 61.5 33 C 64 33 66 36.4 66 40.5 C 66 44.6 64 48 61.5 48 Z M 48 90 C 24.8 90 6 71.2 6 48 C 6 24.8 24.8 6 48 6 C 71.2 6 90 24.8 90 48 C 90 71.2 71.2 90 48 90 Z M 84 48 C 84 28.1 67.9 12 48 12 C 28.1 12 12 28.1 12 48 C 12 67.9 28.1 84 48 84 C 67.9 84 84 67.9 84 48 Z"/>
</svg>