<?xml version="1.0" encoding="utf-8"?>
<svg version="1.2" viewBox="0 0 96 96" xmlns="http://www.w3.org/2000/svg">
  <!-- Gust Symbols by Curbai - https://curbaicode.github.io/ License - https://curbaicode.github.io/gust-symbols/license/ (Symbols: CC BY SA 4.0, Fonts: SIL OFL 1.1, Code: GNU AGPLv3) Copyright Curbai -->
  <path d="M 48 90 C 24.8 90 6 71.2 6 48 C 6 24.8 24.8 6 48 6 C 71.2 6 90 24.8 90 48 C 90 71.2 71.2 90 48 90 Z M 30 36 C 28.343 36 27 37.343 27 39 C 27 40.657 28.343 42 30 42 L 42 42 C 43.657 42 45 40.657 45 39 C 45 37.343 43.657 36 42 36 Z M 54 36 C 52.343 36 51 37.343 51 39 C 51 40.657 52.343 42 54 42 L 66 42 C 67.657 42 69 40.657 69 39 C 69 37.343 67.657 36 66 36 Z M 30 57 C 28.343 57 27 58.343 27 60 C 27 61.657 28.343 63 30 63 L 66 63 C 67.657 63 69 61.657 69 60 C 69 58.343 67.657 57 66 57 Z"/>
</svg>