<?xml version="1.0" encoding="utf-8"?>
<svg version="1.2" viewBox="0 0 96 96" xmlns="http://www.w3.org/2000/svg">
  <!-- Gust Symbols by Curbai - https://curbaicode.github.io/ License - https://curbaicode.github.io/license/ (Symbols: CC BY SA 4.0, Fonts: SIL OFL 1.1, Code: GNU AGPLv3) Copyright Curbai -->
  <path d="M 48 90 C 24.8 90 6 71.2 6 48 C 6 24.8 24.8 6 48 6 C 71.2 6 90 24.8 90 48 C 90 71.2 71.2 90 48 90 Z M 66 39 C 66 35.7 64 33 61.5 33 C 59 33 57 35.7 57 39 C 57 42.3 59 45 61.5 45 C 64 45 66 42.3 66 39 Z M 24 54 C 22.864 54 21.825 54.642 21.316 55.658 C 20.101 58.089 20.752 60.405 21.771 62.713 C 22.791 65.021 24.473 67.411 26.787 69.654 C 31.415 74.142 38.676 78 48 78 C 57.324 78 64.585 74.142 69.213 69.654 C 71.527 67.411 73.209 65.021 74.229 62.713 C 75.248 60.405 75.899 58.089 74.684 55.658 C 74.175 54.642 73.136 54 72 54 C 70.75 54 69.921 54.414 69.246 54.684 C 68.571 54.953 67.821 55.247 66.426 55.582 C 63.636 56.252 58.357 57 48 57 C 37.643 57 32.364 56.252 29.574 55.582 C 28.179 55.247 27.429 54.953 26.754 54.684 C 26.079 54.414 25.25 54 24 54 Z M 70.486 63.378 C 66.933 64.406 59.858 66 48 66 C 36.142 66 29.067 64.406 25.514 63.378 C 23.88 60.737 23.339 58.322 24 57 C 26 57 27 60 48 60 C 69 60 70 57 72 57 C 72.661 58.322 72.12 60.737 70.486 63.378 Z M 39 39 C 39 35.7 37 33 34.5 33 C 32 33 30 35.7 30 39 C 30 42.3 32 45 34.5 45 C 37 45 39 42.3 39 39 Z"/>
</svg>