<?xml version="1.0" encoding="utf-8"?>
<svg version="1.2" viewBox="0 0 96 96" xmlns="http://www.w3.org/2000/svg">
  <!-- Gust Symbols by Curbai - https://curbaicode.github.io/ License - https://curbaicode.github.io/gust-symbols/license/ (Symbols: CC BY SA 4.0, Fonts: SIL OFL 1.1, Code: GNU AGPLv3) Copyright Curbai -->
  <path d="M 34.5 48 C 32 48 30 44.6 30 40.5 C 30 36.4 32 33 34.5 33 C 37 33 39 36.4 39 40.5 C 39 44.6 37 48 34.5 48 Z M 61.5 48 C 59 48 57 44.6 57 40.5 C 57 36.4 59 33 61.5 33 C 64 33 66 36.4 66 40.5 C 66 44.6 64 48 61.5 48 Z M 66 57 C 67.657 57 69 58.343 69 60 C 69 61.657 67.657 63 66 63 L 30 63 C 28.343 63 27 61.657 27 60 C 27 58.343 28.343 57 30 57 Z M 48 90 C 43.4 90 38.9 89.3 34.7 87.9 L 37 82.3 C 40.5 83.4 44.2 84 48 84 C 51.8 84 55.5 83.4 59 82.3 L 61.3 87.9 C 57.1 89.3 52.6 90 48 90 Z M 80 64.5 L 85.6 66.8 C 81.5 74.9 74.9 81.5 66.8 85.6 L 64.5 80 C 71.2 76.6 76.6 71.2 80 64.5 Z M 84 48 C 84 44.2 83.4 40.5 82.3 37 L 87.9 34.7 C 89.3 38.9 90 43.4 90 48 C 90 52.6 89.3 57.1 87.9 61.3 L 82.3 59 C 83.4 55.5 84 51.8 84 48 Z M 64.5 16 L 66.8 10.4 C 74.9 14.5 81.5 21.1 85.6 29.2 L 80 31.5 C 76.6 24.8 71.2 19.4 64.5 16 Z M 6 48 C 6 43.4 6.7 38.9 8.1 34.7 L 13.7 37 C 12.6 40.5 12 44.2 12 48 C 12 51.8 12.6 55.5 13.7 59 L 8.1 61.3 C 6.7 57.1 6 52.6 6 48 Z M 48 6 C 52.6 6 57.1 6.7 61.3 8.1 L 59 13.7 C 55.5 12.6 51.8 12 48 12 C 44.2 12 40.5 12.6 37 13.7 L 34.7 8.1 C 38.9 6.7 43.4 6 48 6 Z M 16 31.5 L 10.4 29.2 C 14.5 21.1 21.1 14.5 29.2 10.4 L 31.5 16 C 24.8 19.4 19.4 24.8 16 31.5 Z M 31.5 80 L 29.2 85.6 C 21.1 81.5 14.5 74.9 10.4 66.8 L 16 64.5 C 19.4 71.2 24.8 76.6 31.5 80 Z"/>
</svg>