<?xml version="1.0" encoding="utf-8"?>
<svg version="1.2" viewBox="0 0 96 96" xmlns="http://www.w3.org/2000/svg">
  <!-- Gust Symbols by Curbai - https://curbaicode.github.io/ License - https://curbaicode.github.io/Gust-Symbols/license/ (Symbols: CC BY SA 4.0, Fonts: SIL OFL 1.1, Code: GNU AGPLv3) Copyright Curbai -->
  <path d="M 49.5 9 L 81 9 C 84.3 9 87 11.7 87 15 L 87 46.5 C 87 67.2 70.2 84 49.5 84 C 44.396 84 39.529 82.979 35.093 81.129 C 35.269 84.116 35.693 87.057 36.33 89.957 C 36.335 89.98 36.34 90.003 36.345 90.027 C 36.786 92.294 34.608 94.189 32.424 93.438 C 29.029 92.27 25.802 90.769 22.777 88.824 C 21.821 88.209 21.295 87.107 21.418 85.977 C 21.869 81.829 22.706 77.769 23.861 73.858 C 16.562 67.015 12 57.287 12 46.5 C 12 25.8 28.8 9 49.5 9 Z M 18 46.5 C 18 54.579 21.04 61.947 26.039 67.523 C 31.257 55.191 40.067 44.69 51.236 37.453 C 51.279 37.425 51.314 37.387 51.357 37.359 C 51.643 37.176 52.001 37.149 52.311 37.289 C 52.97 37.587 53.105 38.466 52.564 38.947 C 42.617 47.789 36.042 60.431 35.11 74.53 C 39.423 76.748 44.315 78 49.5 78 C 66.9 78 81 63.9 81 46.5 L 81 15 L 49.5 15 C 32.1 15 18 29.1 18 46.5 Z"/>
</svg>