<?xml version="1.0" encoding="utf-8"?>
<svg version="1.2" viewBox="0 0 96 96" xmlns="http://www.w3.org/2000/svg">
  <!-- Gust Symbols by Curbai - https://curbaicode.github.io/ License - https://curbaicode.github.io/Gust-Symbols/license/ (Symbols: CC BY SA 4.0, Fonts: SIL OFL 1.1, Code: GNU AGPLv3) Copyright Curbai -->
  <path d="M 12 46.5 C 12 25.8 28.8 9 49.5 9 L 81 9 C 84.3 9 87 11.7 87 15 L 87 46.5 C 87 67.2 70.2 84 49.5 84 C 44.396 84 39.529 82.978 35.093 81.129 C 35.269 84.116 35.693 87.057 36.33 89.957 C 36.335 89.98 36.34 90.003 36.345 90.027 C 36.786 92.294 34.608 94.189 32.424 93.438 C 29.029 92.27 25.802 90.769 22.777 88.824 C 21.821 88.209 21.295 87.107 21.418 85.977 C 21.869 81.829 22.706 77.769 23.861 73.858 C 23.849 73.847 23.838 73.836 23.826 73.825 C 29.052 56.529 41.229 42.243 57.053 34.191 C 57.736 33.837 57.781 32.876 57.132 32.461 C 56.868 32.292 56.54 32.256 56.246 32.365 C 56.212 32.378 56.18 32.395 56.146 32.408 C 39.829 38.622 25.954 49.868 16.451 64.226 C 13.612 58.947 12 52.911 12 46.5 Z"/>
</svg>