<?xml version="1.0" encoding="utf-8"?>
<svg version="1.2" viewBox="0 0 96 96" width="56" height="56" xmlns="http://www.w3.org/2000/svg">
  <path fill-rule="evenodd" d="m75 87c0 1.7-1.3 3-3 3h-48c-1.7 0-3-1.3-3-3v-10.6c1.8 1 3.8 1.6 6 1.6h42c2.2 0 4.2-0.6 6-1.6zm-57-72c0-5 4-9 9-9h42c5 0 9 4 9 9v51c0 5-4 9-9 9h-42c-5 0-9-4-9-9zm6 33c0 1.7 1.3 3 3 3h42c1.7 0 3-1.3 3-3v-33c0-1.7-1.3-3-3-3h-42c-1.7 0-3 1.3-3 3zm24 18h21v-3h-21zm-24 0c0 1.7 1.3 3 3 3 1.7 0 3-1.3 3-3 0-1.7-1.3-3-3-3-1.7 0-3 1.3-3 3z"/>
</svg>