<?xml version="1.0" encoding="utf-8"?>
<svg version="1.2" viewBox="0 0 96 96" xmlns="http://www.w3.org/2000/svg">
  <!-- Gust Symbols by Curbai - https://curbaicode.github.io/ License - https://curbaicode.github.io/license/ (Symbols: CC BY SA 4.0, Fonts: SIL OFL 1.1, Code: GNU AGPLv3) Copyright Curbai -->
  <path d="m12 15c0-6.6 5.4-12 12-12h48c6.6 0 12 5.4 12 12v6.3q-1.5-0.3-3-0.3h-3v-6c0-3.3-2.7-6-6-6h-48c-3.3 0-6 2.7-6 6v6h-3q-1.5 0-3 0.3zm-9 21c0-6.6 5.4-12 12-12h66c6.6 0 12 5.4 12 12v30c0 5.6-3.8 10.3-9 11.6v3.4c0 6.6-5.4 12-12 12h-48c-6.6 0-12-5.4-12-12v-3.4c-5.2-1.3-9-6-9-11.6zm15 45c0 3.3 2.7 6 6 6h48c3.3 0 6-2.7 6-6v-18h-60zm6-42c0 1.7 1.3 3 3 3 1.7 0 3-1.3 3-3 0-1.7-1.3-3-3-3-1.7 0-3 1.3-3 3zm9 0c0 1.7 1.3 3 3 3 1.7 0 3-1.3 3-3 0-1.7-1.3-3-3-3-1.7 0-3 1.3-3 3zm0 9c0 1.7 1.3 3 3 3 1.7 0 3-1.3 3-3 0-1.7-1.3-3-3-3-1.7 0-3 1.3-3 3zm-9 0c0 1.7 1.3 3 3 3 1.7 0 3-1.3 3-3 0-1.7-1.3-3-3-3-1.7 0-3 1.3-3 3zm3 24h27c1.7 0 3 1.3 3 3 0 1.7-1.3 3-3 3h-27c-1.7 0-3-1.3-3-3 0-1.7 1.3-3 3-3zm-12-33c0 1.7 1.3 3 3 3 1.7 0 3-1.3 3-3 0-1.7-1.3-3-3-3-1.7 0-3 1.3-3 3zm0 9c0 1.7 1.3 3 3 3 1.7 0 3-1.3 3-3 0-1.7-1.3-3-3-3-1.7 0-3 1.3-3 3z"/>
</svg>