<?xml version="1.0" encoding="utf-8"?>
<svg version="1.2" viewBox="0 0 96 96" xmlns="http://www.w3.org/2000/svg">
  <!-- Gust Symbols by Curbai - https://curbaicode.github.io/ License - https://curbaicode.github.io/Gust-Symbols/license/ (Symbols: CC BY SA 4.0, Fonts: SIL OFL 1.1, Code: GNU AGPLv3) Copyright Curbai -->
  <path d="m12 15c0-6.6 5.4-12 12-12h48c6.6 0 12 5.4 12 12v9.4c5.2 1.3 9 6 9 11.6v30c0 5.6-3.8 10.3-9 11.6v3.4c0 6.6-5.4 12-12 12h-48c-6.6 0-12-5.4-12-12v-3.4c-5.2-1.3-9-6-9-11.6v-30c0-5.6 3.8-10.3 9-11.6zm66 0c0-3.3-2.7-6-6-6h-48c-3.3 0-6 2.7-6 6v9h60zm-69 51c0 2.2 1.2 4.1 3 5.2v-8.2c0-3.3 2.7-6 6-6h60c3.3 0 6 2.7 6 6v8.2c1.8-1.1 3-3 3-5.2v-30c0-3.3-2.7-6-6-6h-66c-3.3 0-6 2.7-6 6zm9 15c0 3.3 2.7 6 6 6h48c3.3 0 6-2.7 6-6v-18h-60zm9-45c1.7 0 3 1.3 3 3 0 1.6-1.3 3-3 3-1.7 0-3-1.4-3-3 0-1.7 1.3-3 3-3zm9 0c1.7 0 3 1.3 3 3 0 1.6-1.3 3-3 3-1.7 0-3-1.4-3-3 0-1.7 1.3-3 3-3zm0 9c1.7 0 3 1.3 3 3 0 1.6-1.3 3-3 3-1.7 0-3-1.4-3-3 0-1.7 1.3-3 3-3zm-9 0c1.7 0 3 1.3 3 3 0 1.6-1.3 3-3 3-1.7 0-3-1.4-3-3 0-1.7 1.3-3 3-3zm0 27h27c1.7 0 3 1.3 3 3 0 1.6-1.3 3-3 3h-27c-1.7 0-3-1.4-3-3 0-1.7 1.3-3 3-3zm-9-36c1.7 0 3 1.3 3 3 0 1.6-1.3 3-3 3-1.7 0-3-1.4-3-3 0-1.7 1.3-3 3-3zm0 9c1.7 0 3 1.3 3 3 0 1.6-1.3 3-3 3-1.7 0-3-1.4-3-3 0-1.7 1.3-3 3-3z"/>
</svg>