<?xml version="1.0" encoding="utf-8"?>
<svg version="1.2" viewBox="0 0 96 96" width="56" height="56" xmlns="http://www.w3.org/2000/svg">
  <path fill-rule="evenodd" d="m0 39c0-6.6 5.4-12 12-12h72c6.6 0 12 5.4 12 12v18c0 6.6-5.4 12-12 12h-72c-6.6 0-12-5.4-12-12zm30 12h6v-6h-6zm0 9h33v-6h-33zm-3-18h6v-6h-6zm9 0h6v-6h-6zm3 9h6v-6h-6zm9 0h6v-6h-6zm9 0h6v-6h-6zm-3-9h6v-6h-6zm-9 0h6v-6h-6zm21 9h6v-6h-6zm9 0h12v-6h-12zm-9 9h9v-6h-9zm12 0h6c1.7 0 3-1.3 3-3v-3h-9zm-15-18h6v-6h-6zm9 0h6v-6h-6zm9 0h6v-3c0-1.7-1.3-3-3-3h-3zm-72 0h6v-6h-3c-1.7 0-3 1.3-3 3zm9 0h6v-6h-6zm-9 9h9v-6h-9zm12 0h6v-6h-6zm-12 6c0 1.7 1.3 3 3 3h3v-6h-6zm9 3h9v-6h-9z"/>
</svg>