<?xml version="1.0" encoding="utf-8"?>
<svg version="1.2" viewBox="0 0 96 96" width="56" height="56" xmlns="http://www.w3.org/2000/svg">
  <path fill-rule="evenodd" d="M 0 39 C 0 32.4 5.4 27 12 27 L 84 27 C 90.6 27 96 32.4 96 39 L 96 57 C 96 63.6 90.6 69 84 69 L 12 69 C 5.4 69 0 63.6 0 57 Z M 6 57 C 6 60.3 8.7 63 12 63 L 84 63 C 87.3 63 90 60.3 90 57 L 90 39 C 90 35.7 87.3 33 84 33 L 12 33 C 8.7 33 6 35.7 6 39 Z M 30 45 L 36 45 L 36 51 L 30 51 Z M 30 54 L 63 54 L 63 60 L 30 60 Z M 27 36 L 33 36 L 33 42 L 27 42 Z M 36 36 L 42 36 L 42 42 L 36 42 Z M 39 45 L 45 45 L 45 51 L 39 51 Z M 48 45 L 54 45 L 54 51 L 48 51 Z M 57 45 L 63 45 L 63 51 L 57 51 Z M 54 36 L 60 36 L 60 42 L 54 42 Z M 45 36 L 51 36 L 51 42 L 45 42 Z M 66 45 L 72 45 L 72 51 L 66 51 Z M 75 45 L 87 45 L 87 51 L 75 51 Z M 66 54 L 75 54 L 75 60 L 66 60 Z M 78 54 L 87 54 L 87 57 C 87 58.7 85.7 60 84 60 L 78 60 Z M 63 36 L 69 36 L 69 42 L 63 42 Z M 72 36 L 78 36 L 78 42 L 72 42 Z M 81 36 L 84 36 C 85.7 36 87 37.3 87 39 L 87 42 L 81 42 Z M 9 39 C 9 37.3 10.3 36 12 36 L 15 36 L 15 42 L 9 42 Z M 18 36 L 24 36 L 24 42 L 18 42 Z M 9 45 L 18 45 L 18 51 L 9 51 Z M 21 45 L 27 45 L 27 51 L 21 51 Z M 9 54 L 15 54 L 15 60 L 12 60 C 10.3 60 9 58.7 9 57 Z M 18 54 L 27 54 L 27 60 L 18 60 Z"/>
</svg>