<?xml version="1.0" encoding="utf-8"?>
<svg version="1.2" viewBox="0 0 96 96" xmlns="http://www.w3.org/2000/svg">
  <!-- Gust Symbols by Curbai - https://curbaicode.github.io/ License - https://curbaicode.github.io/Gust-Symbols/license/ (Symbols: CC BY SA 4.0, Fonts: SIL OFL 1.1, Code: GNU AGPLv3) Copyright Curbai -->
  <path d="M 0 39 C 0 32.4 5.4 27 12 27 L 84 27 C 90.6 27 96 32.4 96 39 L 96 57 C 96 63.6 90.6 69 84 69 L 12 69 C 5.4 69 0 63.6 0 57 Z M 18 59 C 18 59.6 18.4 60 19 60 L 26 60 C 26.6 60 27 59.6 27 59 L 27 55 C 27 54.4 26.6 54 26 54 L 19 54 C 18.4 54 18 54.4 18 55 Z M 9 57 C 9 58.7 10.3 60 12 60 L 14 60 C 14.6 60 15 59.6 15 59 L 15 55 C 15 54.4 14.6 54 14 54 L 10 54 C 9.4 54 9 54.4 9 55 Z M 21 50 C 21 50.6 21.4 51 22 51 L 26 51 C 26.6 51 27 50.6 27 50 L 27 46 C 27 45.4 26.6 45 26 45 L 22 45 C 21.4 45 21 45.4 21 46 Z M 9 50 C 9 50.6 9.4 51 10 51 L 17 51 C 17.6 51 18 50.6 18 50 L 18 46 C 18 45.4 17.6 45 17 45 L 10 45 C 9.4 45 9 45.4 9 46 Z M 18 41 C 18 41.6 18.4 42 19 42 L 23 42 C 23.6 42 24 41.6 24 41 L 24 37 C 24 36.4 23.6 36 23 36 L 19 36 C 18.4 36 18 36.4 18 37 Z M 9 41 C 9 41.6 9.4 42 10 42 L 14 42 C 14.6 42 15 41.6 15 41 L 15 37 C 15 36.4 14.6 36 14 36 L 12 36 C 10.3 36 9 37.3 9 39 Z M 81 41 C 81 41.6 81.4 42 82 42 L 86 42 C 86.6 42 87 41.6 87 41 L 87 39 C 87 37.3 85.7 36 84 36 L 82 36 C 81.4 36 81 36.4 81 37 Z M 72 41 C 72 41.6 72.4 42 73 42 L 77 42 C 77.6 42 78 41.6 78 41 L 78 37 C 78 36.4 77.6 36 77 36 L 73 36 C 72.4 36 72 36.4 72 37 Z M 63 41 C 63 41.6 63.4 42 64 42 L 68 42 C 68.6 42 69 41.6 69 41 L 69 37 C 69 36.4 68.6 36 68 36 L 64 36 C 63.4 36 63 36.4 63 37 Z M 78 59 C 78 59.6 78.4 60 79 60 L 84 60 C 85.7 60 87 58.7 87 57 L 87 55 C 87 54.4 86.6 54 86 54 L 79 54 C 78.4 54 78 54.4 78 55 Z M 66 59 C 66 59.6 66.4 60 67 60 L 74 60 C 74.6 60 75 59.6 75 59 L 75 55 C 75 54.4 74.6 54 74 54 L 67 54 C 66.4 54 66 54.4 66 55 Z M 75 50 C 75 50.6 75.4 51 76 51 L 86 51 C 86.6 51 87 50.6 87 50 L 87 46 C 87 45.4 86.6 45 86 45 L 76 45 C 75.4 45 75 45.4 75 46 Z M 66 50 C 66 50.6 66.4 51 67 51 L 71 51 C 71.6 51 72 50.6 72 50 L 72 46 C 72 45.4 71.6 45 71 45 L 67 45 C 66.4 45 66 45.4 66 46 Z M 45 41 C 45 41.6 45.4 42 46 42 L 50 42 C 50.6 42 51 41.6 51 41 L 51 37 C 51 36.4 50.6 36 50 36 L 46 36 C 45.4 36 45 36.4 45 37 Z M 54 41 C 54 41.6 54.4 42 55 42 L 59 42 C 59.6 42 60 41.6 60 41 L 60 37 C 60 36.4 59.6 36 59 36 L 55 36 C 54.4 36 54 36.4 54 37 Z M 57 50 C 57 50.6 57.4 51 58 51 L 62 51 C 62.6 51 63 50.6 63 50 L 63 46 C 63 45.4 62.6 45 62 45 L 58 45 C 57.4 45 57 45.4 57 46 Z M 48 50 C 48 50.6 48.4 51 49 51 L 53 51 C 53.6 51 54 50.6 54 50 L 54 46 C 54 45.4 53.6 45 53 45 L 49 45 C 48.4 45 48 45.4 48 46 Z M 39 50 C 39 50.6 39.4 51 40 51 L 44 51 C 44.6 51 45 50.6 45 50 L 45 46 C 45 45.4 44.6 45 44 45 L 40 45 C 39.4 45 39 45.4 39 46 Z M 36 41 C 36 41.6 36.4 42 37 42 L 41 42 C 41.6 42 42 41.6 42 41 L 42 37 C 42 36.4 41.6 36 41 36 L 37 36 C 36.4 36 36 36.4 36 37 Z M 27 41 C 27 41.6 27.4 42 28 42 L 32 42 C 32.6 42 33 41.6 33 41 L 33 37 C 33 36.4 32.6 36 32 36 L 28 36 C 27.4 36 27 36.4 27 37 Z M 30 59 C 30 59.6 30.4 60 31 60 L 62 60 C 62.6 60 63 59.6 63 59 L 63 55 C 63 54.4 62.6 54 62 54 L 31 54 C 30.4 54 30 54.4 30 55 Z M 30 50 C 30 50.6 30.4 51 31 51 L 35 51 C 35.6 51 36 50.6 36 50 L 36 46 C 36 45.4 35.6 45 35 45 L 31 45 C 30.4 45 30 45.4 30 46 Z"/>
</svg>