<?xml version="1.0" encoding="utf-8"?>
<svg version="1.2" viewBox="0 0 96 96" xmlns="http://www.w3.org/2000/svg">
  <!-- Gust Symbols by Curbai - https://curbaicode.github.io/ License - https://curbaicode.github.io/gust-symbols/license/ (Symbols: CC BY SA 4.0, Fonts: SIL OFL 1.1, Code: GNU AGPLv3) Copyright Curbai -->
  <path d="m0 39c0-6.6 5.4-12 12-12h72c6.6 0 12 5.4 12 12v18c0 6.6-5.4 12-12 12h-72c-6.6 0-12-5.4-12-12zm6 18c0 3.3 2.7 6 6 6h72c3.3 0 6-2.7 6-6v-18c0-3.3-2.7-6-6-6h-72c-3.3 0-6 2.7-6 6zm24-11c0-0.6 0.4-1 1-1h4c0.6 0 1 0.4 1 1v4c0 0.6-0.4 1-1 1h-4c-0.6 0-1-0.4-1-1zm0 9c0-0.6 0.4-1 1-1h31c0.6 0 1 0.4 1 1v4c0 0.6-0.4 1-1 1h-31c-0.6 0-1-0.4-1-1zm-3-18c0-0.6 0.4-1 1-1h4c0.6 0 1 0.4 1 1v4c0 0.6-0.4 1-1 1h-4c-0.6 0-1-0.4-1-1zm9 0c0-0.6 0.4-1 1-1h4c0.6 0 1 0.4 1 1v4c0 0.6-0.4 1-1 1h-4c-0.6 0-1-0.4-1-1zm3 9c0-0.6 0.4-1 1-1h4c0.6 0 1 0.4 1 1v4c0 0.6-0.4 1-1 1h-4c-0.6 0-1-0.4-1-1zm9 0c0-0.6 0.4-1 1-1h4c0.6 0 1 0.4 1 1v4c0 0.6-0.4 1-1 1h-4c-0.6 0-1-0.4-1-1zm9 0c0-0.6 0.4-1 1-1h4c0.6 0 1 0.4 1 1v4c0 0.6-0.4 1-1 1h-4c-0.6 0-1-0.4-1-1zm-3-9c0-0.6 0.4-1 1-1h4c0.6 0 1 0.4 1 1v4c0 0.6-0.4 1-1 1h-4c-0.6 0-1-0.4-1-1zm-9 0c0-0.6 0.4-1 1-1h4c0.6 0 1 0.4 1 1v4c0 0.6-0.4 1-1 1h-4c-0.6 0-1-0.4-1-1zm21 9c0-0.6 0.4-1 1-1h4c0.6 0 1 0.4 1 1v4c0 0.6-0.4 1-1 1h-4c-0.6 0-1-0.4-1-1zm9 0c0-0.6 0.4-1 1-1h10c0.6 0 1 0.4 1 1v4c0 0.6-0.4 1-1 1h-10c-0.6 0-1-0.4-1-1zm-9 9c0-0.6 0.4-1 1-1h7c0.6 0 1 0.4 1 1v4c0 0.6-0.4 1-1 1h-7c-0.6 0-1-0.4-1-1zm12 0c0-0.6 0.4-1 1-1h7c0.6 0 1 0.4 1 1v2c0 1.7-1.3 3-3 3h-5c-0.6 0-1-0.4-1-1zm-15-18c0-0.6 0.4-1 1-1h4c0.6 0 1 0.4 1 1v4c0 0.6-0.4 1-1 1h-4c-0.6 0-1-0.4-1-1zm9 0c0-0.6 0.4-1 1-1h4c0.6 0 1 0.4 1 1v4c0 0.6-0.4 1-1 1h-4c-0.6 0-1-0.4-1-1zm9 0c0-0.6 0.4-1 1-1h2c1.7 0 3 1.3 3 3v2c0 0.6-0.4 1-1 1h-4c-0.6 0-1-0.4-1-1zm-72 2c0-1.7 1.3-3 3-3h2c0.6 0 1 0.4 1 1v4c0 0.6-0.4 1-1 1h-4c-0.6 0-1-0.4-1-1zm9-2c0-0.6 0.4-1 1-1h4c0.6 0 1 0.4 1 1v4c0 0.6-0.4 1-1 1h-4c-0.6 0-1-0.4-1-1zm-9 9c0-0.6 0.4-1 1-1h7c0.6 0 1 0.4 1 1v4c0 0.6-0.4 1-1 1h-7c-0.6 0-1-0.4-1-1zm12 0c0-0.6 0.4-1 1-1h4c0.6 0 1 0.4 1 1v4c0 0.6-0.4 1-1 1h-4c-0.6 0-1-0.4-1-1zm-12 9c0-0.6 0.4-1 1-1h4c0.6 0 1 0.4 1 1v4c0 0.6-0.4 1-1 1h-2c-1.7 0-3-1.3-3-3zm9 0c0-0.6 0.4-1 1-1h7c0.6 0 1 0.4 1 1v4c0 0.6-0.4 1-1 1h-7c-0.6 0-1-0.4-1-1z"/>
</svg>