<?xml version="1.0" encoding="utf-8"?>
<svg version="1.2" viewBox="0 0 96 96" xmlns="http://www.w3.org/2000/svg">
  <!-- Gust Symbols by Curbai - https://curbaicode.github.io/ License - https://curbaicode.github.io/Gust-Symbols/license/ (Symbols: CC BY SA 4.0, Fonts: SIL OFL 1.1, Code: GNU AGPLv3) Copyright Curbai -->
  <path d="m3 36c0-6.6 5.4-12 12-12h66c6.6 0 12 5.4 12 12v24c0 6.6-5.4 12-12 12h-66c-6.6 0-12-5.4-12-12zm6 24c0 3.3 2.7 6 6 6h66c3.3 0 6-2.7 6-6v-24c0-3.3-2.7-6-6-6h-66c-3.3 0-6 2.7-6 6zm64.5-9c2.5 0 4.5 2 4.5 4.5 0 2.5-2 4.5-4.5 4.5-2.5 0-4.5-2-4.5-4.5 0-2.5 2-4.5 4.5-4.5zm-55.5 0c0-1.7 1.3-3 3-3 1.7 0 3 1.3 3 3v6c0 1.7-1.3 3-3 3-1.7 0-3-1.3-3-3zm9 0c0-1.7 1.3-3 3-3 1.7 0 3 1.3 3 3v6c0 1.7-1.3 3-3 3-1.7 0-3-1.3-3-3zm12 0h12c1.7 0 3 1.3 3 3 0 1.7-1.3 3-3 3h-12c-1.7 0-3-1.3-3-3 0-1.7 1.3-3 3-3z"/>
</svg>