<?xml version="1.0" encoding="utf-8"?>
<svg version="1.2" viewBox="0 0 96 96" xmlns="http://www.w3.org/2000/svg">
  <!-- Gust Symbols by Curbai - https://curbaicode.github.io/ License - https://curbaicode.github.io/license/ (Symbols: CC BY SA 4.0, Fonts: SIL OFL 1.1, Code: GNU AGPLv3) Copyright Curbai -->
  <path d="m3 18c0-5 4-9 9-9h18c5 0 9 4 9 9h-9c-2.7 0-5.1 1.2-6.7 3h-11.3v3h9.5q-0.5 1.4-0.5 3h-9v3h9v24c-1.7 0-3 1.3-3 3 0 1.7 1.3 3 3 3v3c-1.7 0-3 1.3-3 3 0 1.7 1.3 3 3 3q0.3 0 0.5 0c1.2 3.5 4.6 6 8.5 6h9c0 5-4 9-9 9h-18c-5 0-9-4-9-9zm21 9c0-3.3 2.7-6 6-6h60c3.3 0 6 2.7 6 6v39c0 3.3-2.7 6-6 6h-24v6h12v6h-36v-6h12v-6h-24c-3.3 0-6-2.7-6-6zm6 39h60v-39h-60z"/>
</svg>