<?xml version="1.0" encoding="utf-8"?>
<svg version="1.2" viewBox="0 0 96 96" xmlns="http://www.w3.org/2000/svg">
  <!-- Gust Symbols by Curbai - https://curbaicode.github.io/ License - https://curbaicode.github.io/gust-symbols/license/ (Symbols: CC BY SA 4.0, Fonts: SIL OFL 1.1, Code: GNU AGPLv3) Copyright Curbai -->
  <path d="m3 18c0-5 4-9 9-9h18c5 0 9 4 9 9h-6c0-1.7-1.3-3-3-3h-18c-1.7 0-3 1.3-3 3v57c0 1.7 1.3 3 3 3h18c1.7 0 3-1.3 3-3h6c0 5-4 9-9 9h-18c-5 0-9-4-9-9zm9 3h11.3c-0.8 0.9-1.4 1.9-1.8 3h-9.5zm0 6h9v3h-9zm9 42c-1.7 0-3-1.3-3-3 0-1.7 1.3-3 3-3v3q0 1.6 0.5 3-0.2 0-0.5 0zm-3-12c0-1.7 1.3-3 3-3v6c-1.7 0-3-1.3-3-3zm6-30c0-3.3 2.7-6 6-6h60c3.3 0 6 2.7 6 6v39c0 3.3-2.7 6-6 6h-24v6h12v6h-36v-6h12v-6h-24c-3.3 0-6-2.7-6-6zm6 39h60v-39h-60z"/>
</svg>