<?xml version="1.0" encoding="utf-8"?>
<svg version="1.2" viewBox="0 0 96 96" xmlns="http://www.w3.org/2000/svg">
  <!-- Gust Symbols by Curbai - https://curbaicode.github.io/ License - https://curbaicode.github.io/license/ (Symbols: CC BY SA 4.0, Fonts: SIL OFL 1.1, Code: GNU AGPLv3) Copyright Curbai -->
  <path d="M 12 15 C 12 8.4 17.4 3 24 3 L 72 3 C 78.6 3 84 8.4 84 15 L 84 15.3 C 83 15.1 82 15 81 15 L 78 15 C 78 11.7 75.3 9 72 9 L 24 9 C 20.7 9 18 11.7 18 15 L 15 15 C 14 15 13 15.1 12 15.3 Z M 3 30 C 3 23.4 8.4 18 15 18 L 81 18 C 87.6 18 93 23.4 93 30 L 93 66 C 93 71.6 89.2 76.3 84 77.6 L 84 81 C 84 87.6 78.6 93 72 93 L 24 93 C 17.4 93 12 87.6 12 81 L 12 77.6 C 6.8 76.3 3 71.6 3 66 Z M 18 81 C 18 84.3 20.7 87 24 87 L 72 87 C 75.3 87 78 84.3 78 81 L 78 51 L 18 51 Z M 81 34.5 C 81 32 79 30 76.5 30 C 74 30 72 32 72 34.5 C 72 37 74 39 76.5 39 C 79 39 81 37 81 34.5 Z M 24 75 C 24 73.3 25.3 72 27 72 L 54 72 C 55.7 72 57 73.3 57 75 C 57 76.7 55.7 78 54 78 L 27 78 C 25.3 78 24 76.7 24 75 Z M 24 63 C 24 61.3 25.3 60 27 60 L 69 60 C 70.7 60 72 61.3 72 63 C 72 64.7 70.7 66 69 66 L 27 66 C 25.3 66 24 64.7 24 63 Z"/>
</svg>