<?xml version="1.0" encoding="utf-8"?>
<svg version="1.2" viewBox="0 0 96 96" xmlns="http://www.w3.org/2000/svg">
  <!-- Gust Symbols by Curbai - https://curbaicode.github.io/ License - https://curbaicode.github.io/gust-symbols/license/ (Symbols: CC BY SA 4.0, Fonts: SIL OFL 1.1, Code: GNU AGPLv3) Copyright Curbai -->
  <path d="m9 18c0-5 4-9 9-9h18c5 0 9 4 9 9v18c0 5-4 9-9 9h-18c-5 0-9-4-9-9zm6 18c0 1.7 1.3 3 3 3h18c1.7 0 3-1.3 3-3v-18c0-1.7-1.3-3-3-3h-18c-1.7 0-3 1.3-3 3zm36-18c0-5 4-9 9-9h18c5 0 9 4 9 9v18c0 5-4 9-9 9h-18c-5 0-9-4-9-9zm6 18c0 1.7 1.3 3 3 3h18c1.7 0 3-1.3 3-3v-18c0-1.7-1.3-3-3-3h-18c-1.7 0-3 1.3-3 3zm-48 24c0-5 4-9 9-9h18c5 0 9 4 9 9v18c0 5-4 9-9 9h-18c-5 0-9-4-9-9zm6 18c0 1.7 1.3 3 3 3h18c1.7 0 3-1.3 3-3v-18c0-1.7-1.3-3-3-3h-18c-1.7 0-3 1.3-3 3zm36-18c0-5 4-9 9-9h18c5 0 9 4 9 9v18c0 5-4 9-9 9h-18c-5 0-9-4-9-9zm6 18c0 1.7 1.3 3 3 3h18c1.7 0 3-1.3 3-3v-18c0-1.7-1.3-3-3-3h-18c-1.7 0-3 1.3-3 3z"/>
</svg>