<?xml version="1.0" encoding="utf-8"?>
<svg version="1.2" viewBox="0 0 96 96" xmlns="http://www.w3.org/2000/svg">
  <!-- Gust Symbols by Curbai - https://curbaicode.github.io/ License - https://curbaicode.github.io/license/ (Symbols: CC BY SA 4.0, Fonts: SIL OFL 1.1, Code: GNU AGPLv3) Copyright Curbai -->
  <path d="M 46.479 10.809 L 16.486 28.103 L 16.477 28.109 C 15.573 28.626 15 29.624 15 30.699 L 15 65.301 C 15 66.376 15.573 67.374 16.476 67.891 L 16.486 67.897 L 46.476 85.191 L 46.478 85.191 C 47.461 85.752 48.539 85.752 49.521 85.191 C 49.522 85.191 49.523 85.192 49.523 85.191 L 79.514 67.897 L 79.523 67.891 C 80.427 67.374 81 66.376 81 65.301 L 81 30.699 C 81 29.624 80.427 28.626 79.524 28.109 L 79.514 28.104 L 49.523 10.809 C 49.523 10.808 49.522 10.809 49.521 10.809 C 49.03 10.528 48.515 10.389 48 10.389 C 47.485 10.389 46.97 10.528 46.479 10.809 Z M 82.5 22.9 C 85.3 24.5 87 27.5 87 30.7 L 87 65.3 C 87 68.5 85.3 71.5 82.5 73.1 L 52.5 90.4 C 49.7 92 46.3 92 43.5 90.4 L 13.5 73.1 C 10.7 71.5 9 68.5 9 65.3 L 9 30.7 C 9 27.5 10.7 24.5 13.5 22.9 L 43.5 5.6 C 46.3 4 49.7 4 52.5 5.6 Z"/>
</svg>