<?xml version="1.0" encoding="utf-8"?>
<svg version="1.2" viewBox="0 0 96 96" xmlns="http://www.w3.org/2000/svg">
  <!-- Gust Symbols by Curbai - https://curbaicode.github.io/ License - https://curbaicode.github.io/license/ (Symbols: CC BY SA 4.0, Fonts: SIL OFL 1.1, Code: GNU AGPLv3) Copyright Curbai -->
  <path d="m6 18c0-6.6 5.4-12 12-12h42c6.6 0 12 5.4 12 12v6h6c6.6 0 12 5.4 12 12v42c0 6.6-5.4 12-12 12h-42c-6.6 0-12-5.4-12-12v-6h-6c-6.6 0-12-5.4-12-12zm6 42c0 3.3 2.7 6 6 6h6v-30c0-6.6 5.4-12 12-12h30v-6c0-3.3-2.7-6-6-6h-42c-3.3 0-6 2.7-6 6zm18 18c0 3.3 2.7 6 6 6h42c3.3 0 6-2.7 6-6v-42c0-3.3-2.7-6-6-6h-42c-3.3 0-6 2.7-6 6z"/>
</svg>