<?xml version="1.0" encoding="utf-8"?>
<svg version="1.2" viewBox="0 0 96 96" xmlns="http://www.w3.org/2000/svg">
  <!-- Gust Symbols by Curbai - https://curbaicode.github.io/ License - https://curbaicode.github.io/gust-symbols/license/ (Symbols: CC BY SA 4.0, Fonts: SIL OFL 1.1, Code: GNU AGPLv3) Copyright Curbai -->
  <path d="m39 3c13.3 0 25 7.2 31.2 18h-7.2c-5.5-7.3-14.2-12-24-12-16.6 0-30 13.4-30 30 0 9.8 4.7 18.5 12 24v7.2c-10.8-6.2-18-17.9-18-31.2 0-19.9 16.1-36 36-36zm-15 33c0-6.6 5.4-12 12-12h42c6.6 0 12 5.4 12 12v42c0 6.6-5.4 12-12 12h-42c-6.6 0-12-5.4-12-12z"/>
</svg>