<?xml version="1.0" encoding="utf-8"?>
<svg version="1.2" viewBox="0 0 96 96" xmlns="http://www.w3.org/2000/svg">
  <!-- Gust Symbols by Curbai - https://curbaicode.github.io/ License - https://curbaicode.github.io/gust-symbols/license/ (Symbols: CC BY SA 4.0, Fonts: SIL OFL 1.1, Code: GNU AGPLv3) Copyright Curbai -->
  <path d="m39 3c14.5 0 27 8.6 32.7 21h6.3c6.6 0 12 5.4 12 12v42c0 6.6-5.4 12-12 12h-42c-6.6 0-12-5.4-12-12v-6.3c-12.4-5.7-21-18.2-21-32.7 0-19.9 16.1-36 36-36zm-30 36c0 11.1 6 20.8 15 26v-29c0-6.6 5.4-12 12-12h29c-5.2-9-14.9-15-26-15-16.6 0-30 13.4-30 30zm21 39c0 3.3 2.7 6 6 6h42c3.3 0 6-2.7 6-6v-42c0-3.3-2.7-6-6-6h-42c-3.3 0-6 2.7-6 6z"/>
</svg>