<?xml version="1.0" encoding="utf-8"?>
<svg version="1.2" viewBox="0 0 96 96" width="56" height="56" xmlns="http://www.w3.org/2000/svg">
  <path d="M 87 84 C 88.657 84 90 82.657 90 81 C 90 79.343 88.657 78 87 78 L 60 78 C 58.343 78 57 79.343 57 81 C 57 82.657 58.343 84 60 84 L 87 84 Z M 33 84 C 34.176 84 35.243 83.313 35.73 82.242 L 64.932 18 L 87 18 C 88.657 18 90 16.657 90 15 C 90 13.343 88.657 12 87 12 L 63 12 C 61.824 12 60.757 12.687 60.27 13.758 L 31.068 78 L 9 78 C 7.343 78 6 79.343 6 81 C 6 82.657 7.343 84 9 84 L 33 84 Z"/>
</svg>