<?xml version="1.0" encoding="utf-8"?>
<svg version="1.2" viewBox="0 0 96 96" width="56" height="56" xmlns="http://www.w3.org/2000/svg">
  <path fill-rule="evenodd" d="m24 9c8.3 0 15 6.7 15 15v9h18v-9c0-8.3 6.7-15 15-15 8.3 0 15 6.7 15 15 0 8.3-6.7 15-15 15h-9v18h9c8.3 0 15 6.7 15 15 0 8.3-6.7 15-15 15-8.3 0-15-6.7-15-15v-9h-18v9c0 8.3-6.7 15-15 15-8.3 0-15-6.7-15-15 0-8.3 6.7-15 15-15h9v-18h-9c-8.3 0-15-6.7-15-15 0-8.3 6.7-15 15-15zm-9 15c0 5 4 9 9 9h9v-9c0-5-4-9-9-9-5 0-9 4-9 9zm48 9h9c5 0 9-4 9-9 0-5-4-9-9-9-5 0-9 4-9 9zm0 39c0 5 4 9 9 9 5 0 9-4 9-9 0-5-4-9-9-9h-9zm-48 0c0 5 4 9 9 9 5 0 9-4 9-9v-9h-9c-5 0-9 4-9 9zm24-15h18v-18h-18z"/>
</svg>