<?xml version="1.0" encoding="utf-8"?>
<svg version="1.2" viewBox="0 0 96 96" width="56" height="56" xmlns="http://www.w3.org/2000/svg">
  <path d="M 87 12 C 88.657 12 90 13.343 90 15 C 90 16.657 88.657 18 87 18 L 60 18 C 58.343 18 57 16.657 57 15 C 57 13.343 58.343 12 60 12 Z M 33 12 C 34.176 12 35.243 12.687 35.73 13.758 L 64.932 78 L 87 78 C 88.657 78 90 79.343 90 81 C 90 82.657 88.657 84 87 84 L 63 84 C 61.824 84 60.757 83.313 60.27 82.242 L 31.068 18 L 9 18 C 7.343 18 6 16.657 6 15 C 6 13.343 7.343 12 9 12 Z"/>
</svg>