<?xml version="1.0" encoding="utf-8"?>
<svg version="1.2" viewBox="0 0 96 96" xmlns="http://www.w3.org/2000/svg">
  <!-- Gust Symbols by Curbai - https://curbaicode.github.io/ License - https://curbaicode.github.io/Gust-Symbols/license/ (Symbols: CC BY SA 4.0, Fonts: SIL OFL 1.1, Code: GNU AGPLv3) Copyright Curbai -->
  <path d="m 6,48 a 3,3 0 0 0 -3,3 v 16 c 0,4.371424 3.6285758,8 8,8 h 73 c 4.936359,0 9,-4.063641 9,-9 V 51 a 3,3 0 0 0 -3,-3 3,3 0 0 0 -3,3 v 15 c 0,1.663635 -1.336365,3 -3,3 H 11 C 9.7714298,69 9,68.22857 9,67 V 51 A 3,3 0 0 0 6,48 Z"/>
</svg>