<?xml version="1.0" encoding="utf-8"?>
<svg version="1.2" viewBox="0 0 96 96" xmlns="http://www.w3.org/2000/svg">
  <!-- Gust Symbols by Curbai - https://curbaicode.github.io/ License - https://curbaicode.github.io/Gust-Symbols/license/ (Symbols: CC BY SA 4.0, Fonts: SIL OFL 1.1, Code: GNU AGPLv3) Copyright Curbai -->
  <path d="M 36.799 22.355 L 69.799 49.355 C 73.119 52.072 72.598 57.295 68.807 59.303 L 17.807 86.303 C 17.304 86.568 16.766 86.761 16.209 86.876 C 11.684 87.805 7.85 83.487 9.309 79.104 L 27.309 25.104 C 27.932 23.231 29.437 21.785 31.332 21.236 C 33.227 20.688 35.271 21.106 36.799 22.355 Z M 33 27 L 28.8 39.601 C 28.814 39.611 28.828 39.622 28.842 39.633 L 54.882 59.886 L 66 54 Z M 15 81 L 31.517 72.256 L 20.778 63.665 Z M 21 9 C 21 10.657 19.657 12 18 12 C 17.5 12 16.65 12.342 15.996 12.996 C 15.342 13.65 15 14.5 15 15 C 15 15.358 15.019 15.57 15.036 15.689 C 15.124 15.715 15.271 15.754 15.494 15.791 C 16.084 15.889 17.047 15.856 18.404 16.535 C 19.762 17.214 21 19.25 21 21 C 21 22.75 20.212 24.38 19.24 25.406 C 18.544 26.141 17.848 26.476 17.164 26.859 C 17.487 26.894 17.664 27 18 27 C 19.657 27 21 28.343 21 30 C 21 31.657 19.657 33 18 33 C 16.167 33 14.346 32.743 12.656 31.992 C 11.811 31.617 10.974 31.106 10.258 30.287 C 9.541 29.468 9 28.25 9 27 C 9 26 9.449 25.024 9.941 24.426 C 10.434 23.828 10.931 23.491 11.373 23.221 C 12.258 22.68 13.027 22.382 13.658 22.066 C 13.986 21.902 14.085 21.799 14.297 21.658 C 13.384 21.5 12.072 21.216 10.877 20.088 C 9.603 18.885 9 17 9 15 C 9 12.5 10.158 10.35 11.754 8.754 C 13.35 7.158 15.5 6 18 6 C 19.657 6 21 7.343 21 9 Z M 43.5 11.908 C 45.908 13.835 48 17 48 21 C 48 22.657 46.657 24 45 24 C 43.343 24 42 22.657 42 21 C 42 19 41.092 17.665 39.75 16.592 C 38.408 15.518 36.5 15 36 15 C 34.343 15 33 13.657 33 12 C 33 10.343 34.343 9 36 9 C 38.5 9 41.092 9.982 43.5 11.908 Z M 86.121 9.879 C 87.255 11.013 87.327 11.783 87.594 12.748 C 87.861 13.713 88.043 14.785 88.119 15.926 C 88.271 18.207 88.359 20.884 86.121 23.121 C 85.201 24.042 84.24 24.157 83.607 24.199 C 82.975 24.241 82.489 24.179 82.012 24.107 C 81.057 23.965 80.149 23.739 79.287 23.566 C 78.425 23.394 77.619 23.289 77.164 23.297 C 76.978 23.3 76.937 23.315 76.916 23.318 C 76.905 23.337 76.792 23.476 76.747 23.501 C 76.785 23.584 76.891 23.848 77.156 24.264 C 77.537 24.862 78.229 25.66 78.609 27.146 C 78.99 28.633 78.401 30.841 77.121 32.121 C 76.304 32.938 75.131 33.483 74.053 33.594 C 72.974 33.704 72.046 33.483 71.256 33.195 C 69.676 32.621 68.461 31.746 67.336 30.996 C 66.337 30.33 65.523 29.861 64.99 29.619 C 64.801 30.001 64.5 30.568 64.5 31.5 C 64.5 32.679 65.005 33.763 65.121 33.879 C 66.292 35.05 66.292 36.95 65.121 38.121 C 63.95 39.292 62.05 39.292 60.879 38.121 C 58.995 36.237 58.5 33.821 58.5 31.5 C 58.5 29.179 58.995 26.763 60.879 24.879 C 61.696 24.062 62.869 23.517 63.947 23.406 C 65.026 23.296 65.954 23.517 66.744 23.805 C 68.324 24.379 69.539 25.254 70.664 26.004 C 71.044 26.257 71.215 26.315 71.557 26.527 C 71.173 25.825 70.808 24.997 70.74 23.848 C 70.64 22.142 71.481 20.277 72.879 18.879 C 74.174 17.583 75.791 17.32 77.055 17.297 C 78.318 17.274 79.45 17.481 80.463 17.684 C 81.089 17.809 81.49 17.888 81.967 17.986 C 82.068 17.544 82.195 17.28 82.131 16.324 C 82.082 15.59 81.952 14.85 81.812 14.346 C 81.673 13.842 81.245 13.487 81.879 14.121 C 80.708 12.95 80.708 11.05 81.879 9.879 C 82.441 9.316 83.204 9 84 9 C 84.796 9 85.559 9.316 86.121 9.879 Z M 89.121 39.879 C 90.292 41.05 90.292 42.95 89.121 44.121 C 87.95 45.292 86.05 45.292 84.879 44.121 C 84.44 43.682 82 42.75 79.5 42.75 C 77 42.75 74.56 43.682 74.121 44.121 C 72.95 45.292 71.05 45.292 69.879 44.121 C 68.708 42.95 68.708 41.05 69.879 39.879 C 72.44 37.318 76 36.75 79.5 36.75 C 83 36.75 86.56 37.318 89.121 39.879 Z M 22.875 57.658 L 37.297 69.196 L 49.068 62.964 L 26.788 45.635 L 22.8 57.6 C 22.825 57.619 22.85 57.638 22.875 57.658 Z M 15.06 15.808 C 15.066 15.828 15.067 15.824 15.06 15.808 Z M 63 75 C 61.3 75 60 73.7 60 72 C 60 70.3 61.3 69 63 69 C 64.7 69 66 70.3 66 72 C 66 73.7 64.7 75 63 75 Z M 75 72 C 73.3 72 72 70.7 72 69 C 72 67.3 73.3 66 75 66 C 76.7 66 78 67.3 78 69 C 78 70.7 76.7 72 75 72 Z M 81 81 C 79.3 81 78 79.7 78 78 C 78 76.3 79.3 75 81 75 C 82.7 75 84 76.3 84 78 C 84 79.7 82.7 81 81 81 Z M 84 60 C 82.3 60 81 58.7 81 57 C 81 55.3 82.3 54 84 54 C 85.7 54 87 55.3 87 57 C 87 58.7 85.7 60 84 60 Z M 54 21 C 52.3 21 51 19.7 51 18 C 51 16.3 52.3 15 54 15 C 55.7 15 57 16.3 57 18 C 57 19.7 55.7 21 54 21 Z M 66 15 C 64.3 15 63 13.7 63 12 C 63 10.3 64.3 9 66 9 C 67.7 9 69 10.3 69 12 C 69 13.7 67.7 15 66 15 Z M 12 48 C 10.3 48 9 46.7 9 45 C 9 43.3 10.3 42 12 42 C 13.7 42 15 43.3 15 45 C 15 46.7 13.7 48 12 48 Z M 27 18 C 25.3 18 24 16.7 24 15 C 24 13.3 25.3 12 27 12 C 28.7 12 30 13.3 30 15 C 30 16.7 28.7 18 27 18 Z"/>
</svg>